<svg xmlns="http://www.w3.org/2000/svg" viewBox="0 0 369.96 141.44"><defs><style>.cls-1{fill:#5e9ed5;}.cls-2{fill:#fff;}.cls-3{fill:#66b0e1;}.cls-4{fill:#ffd857;}.cls-5{fill:#a9d0ee;}.cls-6{fill:#79bbe7;}.cls-7{fill:#e890ae;}.cls-8{fill:#87c9ef;}.cls-9{fill:#eda6c5;}.cls-10{fill:#fff196;}.cls-11{fill:#c5e9fb;}.cls-12{fill:#669bd2;}.cls-13{fill:#8c8e90;}</style></defs><title>kidsloop_live_teachers</title><g id="Layer_2" data-name="Layer 2"><g id="Layer_1-2" data-name="Layer 1"><rect class="cls-1" x="1.13" y="103.52" width="106.97" height="37.92" rx="18.96"/><path class="cls-2" d="M26.28,110h6.43v18.93h9.21v5.39H26.28Z"/><path class="cls-2" d="M43.79,110.08a3.19,3.19,0,0,1,3.51-3.22c2.1,0,3.52,1.27,3.52,3.22s-1.42,3.21-3.52,3.21A3.18,3.18,0,0,1,43.79,110.08Zm.3,5.53h6.43v18.71H44.09Z"/><path class="cls-2" d="M51.65,115.61h6.43l2,8.16q.67,2.81,1.35,5.84h.15q.67-3,1.34-5.84l2-8.16H71.1l-5.91,18.71H57.78Z"/><path class="cls-2" d="M70.88,125c0-6.06,4.41-9.8,9-9.8,5.53,0,8.15,4,8.15,9a13.57,13.57,0,0,1-.26,2.69H77.09c.6,2.25,2.24,3,4.34,3a8,8,0,0,0,3.89-1.13l2,3.82a12.61,12.61,0,0,1-6.81,2.17C75.07,134.77,70.88,131.18,70.88,125Zm11.67-2.25c0-1.42-.6-2.69-2.54-2.69a3,3,0,0,0-3,2.69Z"/><path class="cls-1" d="M309.31,31.56l10.07-6a11.14,11.14,0,0,0,5.33-10.8L323,0,312.37,6.47a11.14,11.14,0,0,0-5.23,11.26l2.17,13.83"/><path class="cls-1" d="M320.46,30.17l-9.72,5.1a22,22,0,0,1,12.1,2.6l15.88,8.59a22.12,22.12,0,0,0,20.55-.21L370,40.53l-1.85-.18a33.74,33.74,0,0,1-10.63-2.78l-17.29-7.73a22.13,22.13,0,0,0-19.73.33"/><path class="cls-1" d="M337.53,57.22a32.65,32.65,0,0,1-18.48-11L300.15,24c-5.64-6.86-14.29-8.72-21.37-5l-9.9,5.31,2.27,1a22.52,22.52,0,0,1,9.64,8.54l15.49,23.29c7.83,10.64,15.6,12.72,27.18,7.44l14.07-7.43"/><path class="cls-3" d="M293.5,42.1a53.28,53.28,0,0,0,6.69,19.7c3.84,3.8,7.82,5.64,12.38,5.64a20.47,20.47,0,0,0,4.94-.65c-7.2-5.23-13-13.76-15.9-21.38a17.87,17.87,0,0,1-8.11-3.31"/><path class="cls-4" d="M330.66,27.68c-.48,0-1,0-1.43.05a67.51,67.51,0,0,1-8,9.34c.56.25,1.1.51,1.63.8l15.88,8.59a22.1,22.1,0,0,0,20.55-.21L370,40.53l-1.85-.18a33.74,33.74,0,0,1-10.63-2.78l-17.29-7.73a22.14,22.14,0,0,0-9.53-2.16"/><path class="cls-5" d="M315.3,41.78a21.46,21.46,0,0,1-11.55,3.77,17,17,0,0,1-2.14-.14c2.86,7.62,8.7,16.15,15.9,21.38a34.78,34.78,0,0,0,5.95-2.14l14.07-7.43a32.65,32.65,0,0,1-18.48-11l-3.75-4.39"/><path class="cls-6" d="M286.39,17.15a16.13,16.13,0,0,0-6.92,1.56c.31,1.16.64,2.29,1,3.37,3,9,7.48,16.07,13,20a67.91,67.91,0,0,1-.12-19.35c.19-1.26.4-2.51.65-3.73a16.74,16.74,0,0,0-7.64-1.87"/><path class="cls-7" d="M323,0,312.37,6.47a11.14,11.14,0,0,0-5.23,11.26h0A34.21,34.21,0,0,1,324,8.12L323,0"/><path class="cls-8" d="M294,19c-.25,1.22-.46,2.47-.65,3.73a67.91,67.91,0,0,0,.12,19.35,17.87,17.87,0,0,0,8.11,3.31,36.49,36.49,0,0,1-1.14-3.62,24.85,24.85,0,0,1,1.32-15.86L300.15,24A19.41,19.41,0,0,0,294,19"/><path class="cls-9" d="M324,8.12a34.21,34.21,0,0,0-16.82,9.62l2.17,13.82,10.07-6a11.14,11.14,0,0,0,5.33-10.8L324,8.12"/><path class="cls-10" d="M329.23,27.73a22.08,22.08,0,0,0-8.77,2.44l-9.72,5.1c.53,0,1.07-.06,1.6-.06a22.18,22.18,0,0,1,8.87,1.86,67.51,67.51,0,0,0,8-9.34"/><path class="cls-11" d="M301.79,25.93a24.85,24.85,0,0,0-1.32,15.86,36.49,36.49,0,0,0,1.14,3.62,17,17,0,0,0,2.14.14,21.46,21.46,0,0,0,11.55-3.77L301.79,25.93"/><path class="cls-12" d="M27.07,62.8a7.74,7.74,0,0,0-6-2.88h1.31a9.06,9.06,0,0,0,7.07-3.38L41.23,42a1.84,1.84,0,0,0-1.43-3H33.32a9.06,9.06,0,0,0-7,3.31L12,59.68V31.6a6.51,6.51,0,0,0-5.65-6.46l-2.83-.45A3,3,0,0,0,0,27.7V82.05a3,3,0,0,0,3.51,3l2.83-.44c3.29-.75,5.65-3.2,5.65-6.46V62.53L29.13,80.25a7.72,7.72,0,0,0,6,2.83h7.06a1.84,1.84,0,0,0,1.44-3Z"/><path class="cls-12" d="M54,40.43l-3.89-.52a3,3,0,0,0-3.45,3V80a3,3,0,0,0,3.45,3L54,82.53a6.52,6.52,0,0,0,5.64-6.46V46.89A6.52,6.52,0,0,0,54,40.43Z"/><path class="cls-12" d="M96.65,24l-2.84.44a6.56,6.56,0,0,0-5.64,6.46V39H76.38A13.17,13.17,0,0,0,63.21,52.2V69.94A13.17,13.17,0,0,0,76.38,83.11H88.57l1.87,0a9.15,9.15,0,0,0,3.37,1.53l2.84.44a3,3,0,0,0,3.51-3V27A3,3,0,0,0,96.65,24ZM75.23,68.31V53.82a6.66,6.66,0,0,1,6.66-6.66h6.28V75H81.89A6.66,6.66,0,0,1,75.23,68.31Z"/><path class="cls-12" d="M247.79,98.13l2.83-.45a6.5,6.5,0,0,0,5.64-6.45V83.06h11.79a13.17,13.17,0,0,0,13.17-13.17V52.15A13.16,13.16,0,0,0,268.05,39H255.86L254,39a6.41,6.41,0,0,0-3.37-1.52L247.79,37a3,3,0,0,0-3.51,3V95.12A3,3,0,0,0,247.79,98.13Zm21.42-44.36V68.26a6.67,6.67,0,0,1-6.67,6.67h-6.28V47.11h6.28A6.67,6.67,0,0,1,269.21,53.77Z"/><path class="cls-12" d="M176.71,39c-11.57,0-20.94,4.4-20.94,22s9.37,22,20.94,22,20.94-4.39,20.94-22S188.27,39,176.71,39Zm0,36.32c-4.46,0-8.08-1.51-8.08-14.28s3.62-14.27,8.08-14.27,8.07,1.51,8.07,14.27S181.17,75.32,176.71,75.32Z"/><path class="cls-12" d="M220.83,39c-11.56,0-20.94,4.4-20.94,22s9.38,22,20.94,22,20.94-4.39,20.94-22S232.4,39,220.83,39Zm0,36.32c-4.46,0-8.07-1.51-8.07-14.28s3.61-14.27,8.07-14.27,8.08,1.51,8.08,14.27S225.29,75.32,220.83,75.32Z"/><path class="cls-12" d="M125.68,56.53h-5.57A4.53,4.53,0,0,1,115.58,52a4.87,4.87,0,0,1,4.86-4.86h9.29a8.17,8.17,0,0,0,7.85-6c.18-.67.48-2.11-2-2.11H115.9a12.35,12.35,0,0,0-12.34,12.34v1A12.39,12.39,0,0,0,115.9,64.66h6.54a4.82,4.82,0,0,1,4.83,4.82A5.48,5.48,0,0,1,121.79,75H111.4l-.55,0a8.15,8.15,0,0,0-7.29,6c-.19.68-.49,2.11,2,2.11h20.77a13,13,0,0,0,13-13A13.65,13.65,0,0,0,125.68,56.53Z"/><path class="cls-12" d="M153.52,30.86a6.52,6.52,0,0,0-5.64-6.46L145.05,24a3,3,0,0,0-3.51,3V82.05a3,3,0,0,0,3.51,3l2.83-.44a6.59,6.59,0,0,0,5.64-6.46Z"/><path class="cls-13" d="M116.74,109.67h13.35v1.38H118.35v10h10v1.39h-10v11.93h-1.61Z"/><path class="cls-13" d="M130.88,125.38c0-6,3.74-9.47,8.05-9.47s8,3.48,8,9.47-3.74,9.39-8,9.39S130.88,131.33,130.88,125.38Zm14.48,0c0-4.79-2.77-8.08-6.43-8.08s-6.44,3.29-6.44,8.08,2.77,8,6.44,8S145.36,130.17,145.36,125.38Z"/><path class="cls-13" d="M150.9,116.36h1.31l.19,3.37h.07c1.2-2.21,3-3.82,5.09-3.82a3.54,3.54,0,0,1,1.76.38l-.41,1.34a4.87,4.87,0,0,0-1.54-.22c-1.64,0-3.55,1.24-4.94,4.64v12.27H150.9Z"/><path class="cls-13" d="M172.68,111.05h-7.86v-1.38h17.36v1.38h-7.9v23.27h-1.6Z"/><path class="cls-13" d="M181.47,125.38c0-5.87,3.82-9.47,7.82-9.47,4.23,0,6.85,3,6.85,8.31a7.88,7.88,0,0,1-.08,1.35h-13c0,4.56,2.73,7.85,6.81,7.85a8.44,8.44,0,0,0,4.86-1.46l.64,1a9.3,9.3,0,0,1-5.65,1.76C185.17,134.77,181.47,131.25,181.47,125.38Zm13.21-1.16c0-4.64-2.14-7-5.39-7-3.07,0-5.84,2.62-6.21,7Z"/><path class="cls-13" d="M197.63,129.87c0-4,3.63-5.87,11.64-6.77,0-2.81-.71-5.8-4.27-5.8a10.19,10.19,0,0,0-5.76,2.06l-.71-1.13a11.54,11.54,0,0,1,6.62-2.32c4.23,0,5.65,3.11,5.65,6.89v11.52h-1.31l-.18-2.36h-.08c-1.83,1.5-4,2.81-6.4,2.81C200,134.77,197.63,133.27,197.63,129.87Zm11.64.64v-6.22c-7.52.9-10.07,2.59-10.07,5.5,0,2.62,1.8,3.63,3.9,3.63S207,132.41,209.27,130.51Z"/><path class="cls-13" d="M214.25,125.38c0-6,3.81-9.47,8.15-9.47a7.17,7.17,0,0,1,5.28,2.25l-.86,1a6,6,0,0,0-4.38-1.83c-3.7,0-6.58,3.29-6.58,8.08s2.61,8,6.58,8a7.21,7.21,0,0,0,4.86-2l.79,1a8.08,8.08,0,0,1-5.72,2.39C217.76,134.77,214.25,131.33,214.25,125.38Z"/><path class="cls-13" d="M231.05,107.38h1.53v7.86l0,4c1.91-1.87,3.78-3.3,6.25-3.3,3.71,0,5.43,2.25,5.43,6.89v11.52h-1.54V123c0-3.82-1.23-5.69-4.15-5.69-2.17,0-3.74,1.16-5.95,3.44v13.58h-1.53Z"/><path class="cls-13" d="M247.73,125.38c0-5.87,3.82-9.47,7.82-9.47,4.23,0,6.85,3,6.85,8.31a9,9,0,0,1-.07,1.35h-13c0,4.56,2.74,7.85,6.81,7.85A8.45,8.45,0,0,0,261,132l.63,1a9.25,9.25,0,0,1-5.65,1.76C251.44,134.77,247.73,131.25,247.73,125.38Zm13.21-1.16c0-4.64-2.13-7-5.39-7-3.06,0-5.83,2.62-6.21,7Z"/><path class="cls-13" d="M265.81,116.36h1.31l.18,3.37h.08c1.2-2.21,2.95-3.82,5.09-3.82a3.53,3.53,0,0,1,1.75.38l-.41,1.34a4.81,4.81,0,0,0-1.53-.22c-1.65,0-3.56,1.24-4.94,4.64v12.27h-1.53Z"/><path class="cls-13" d="M273.85,132.26l.82-1a8.19,8.19,0,0,0,5.8,2.13c2.88,0,4.38-1.68,4.38-3.59,0-2.28-2.32-3.29-4.41-4-2.77-1-5.62-2.06-5.62-5.12,0-2.55,2-4.76,5.77-4.76a7.94,7.94,0,0,1,5.08,1.88l-.86,1a6.7,6.7,0,0,0-4.3-1.5c-2.84,0-4.11,1.65-4.11,3.33,0,2.06,1.94,2.84,4.11,3.67,2.84,1.08,5.91,2,5.91,5.46,0,2.69-2.17,5.05-6,5.05A9,9,0,0,1,273.85,132.26Z"/></g></g></svg>