<svg width="24" height="24" viewBox="0 0 24 24" fill="none" xmlns="http://www.w3.org/2000/svg">
<path d="M9.92999 4.45001C7.20999 5.00001 5.15999 6.60001 4.79999 10.64C4.31863 10.7405 3.88781 11.0068 3.58263 11.3924C3.27745 11.778 3.11726 12.2584 3.12999 12.75C3.11229 13.2763 3.29583 13.7895 3.64325 14.1853C3.99066 14.581 4.47583 14.8294 4.99999 14.88C5.89999 18.68 8.69998 19.72 12 19.72C15.3 19.72 18.14 18.72 19 14.87C19.5005 14.7902 19.955 14.5311 20.2788 14.1411C20.6026 13.7511 20.7736 13.2567 20.76 12.75C20.7702 12.2845 20.6269 11.8286 20.3522 11.4526C20.0774 11.0767 19.6866 10.8017 19.24 10.67C18.79 5.60001 15.71 4.28001 11.96 4.28001C11.2431 4.27455 10.527 4.33143 9.81998 4.45001" fill="#FFC720"/>
<path d="M9.91185 14.1045C10.2868 13.7296 10.2899 13.125 9.91892 12.754C9.54793 12.383 8.94325 12.3861 8.56835 12.761C8.19345 13.1359 8.19028 13.7406 8.56128 14.1116C8.93228 14.4826 9.53695 14.4794 9.91185 14.1045Z" fill="#50595E"/>
<path d="M15.5741 14.1023C15.949 13.7274 15.9522 13.1227 15.5812 12.7517C15.2102 12.3807 14.6055 12.3839 14.2306 12.7588C13.8557 13.1337 13.8525 13.7384 14.2235 14.1094C14.5945 14.4804 15.1992 14.4772 15.5741 14.1023Z" fill="#50595E"/>
<path d="M10.71 15.43C10.6474 15.4296 10.5857 15.4443 10.5299 15.4729C10.4742 15.5014 10.4262 15.5429 10.3899 15.5939C10.3536 15.6449 10.3302 15.7039 10.3215 15.7658C10.3128 15.8278 10.3191 15.891 10.34 15.95C10.4666 16.3576 10.7203 16.714 11.0639 16.9671C11.4076 17.2202 11.8232 17.3568 12.25 17.3568C12.6768 17.3568 13.0924 17.2202 13.4361 16.9671C13.7797 16.714 14.0334 16.3576 14.16 15.95C14.1806 15.8918 14.1871 15.8295 14.1789 15.7683C14.1707 15.7071 14.1481 15.6487 14.113 15.5979C14.0778 15.5472 14.0311 15.5055 13.9767 15.4763C13.9223 15.4471 13.8617 15.4312 13.8 15.43H10.71Z" fill="#FF70C8"/>
</svg>
