<svg width="24" height="24" viewBox="0 0 24 24" fill="none" xmlns="http://www.w3.org/2000/svg">
<path d="M16.53 4.45H17.24C18.0754 4.45 18.8766 4.78187 19.4674 5.37261C20.0581 5.96335 20.39 6.76456 20.39 7.6V19C20.39 19.1406 20.3342 19.2754 20.2348 19.3748C20.1354 19.4742 20.0006 19.53 19.86 19.53H19.15C18.318 19.53 17.5198 19.2009 16.9297 18.6145C16.3395 18.028 16.0053 17.232 16 16.4V5C16 4.85943 16.0558 4.72462 16.1552 4.62523C16.2546 4.52584 16.3894 4.47 16.53 4.47V4.45Z" fill="#FFC720"/>
<path d="M10.33 9.19H11C11.8354 9.19 12.6366 9.52188 13.2274 10.1126C13.8181 10.7034 14.15 11.5046 14.15 12.34V19C14.15 19.1406 14.0942 19.2754 13.9948 19.3748C13.8954 19.4742 13.7606 19.53 13.62 19.53H13C12.5847 19.5353 12.1724 19.4584 11.7869 19.3037C11.4014 19.149 11.0503 18.9196 10.7538 18.6287C10.4573 18.3378 10.2213 17.9911 10.0593 17.6086C9.89733 17.2261 9.8126 16.8154 9.81 16.4V9.71C9.81256 9.57289 9.86817 9.44211 9.96514 9.34514C10.0621 9.24817 10.1929 9.19257 10.33 9.19Z" fill="#3984F7"/>
<path d="M4.12999 13.32H4.83999C5.25449 13.3187 5.66518 13.3992 6.04851 13.5569C6.43184 13.7146 6.78027 13.9464 7.07384 14.2391C7.3674 14.5317 7.60033 14.8794 7.75925 15.2622C7.91818 15.6451 7.99999 16.0555 7.99999 16.47V19C7.99999 19.1406 7.94415 19.2754 7.84475 19.3748C7.74536 19.4742 7.61055 19.53 7.46999 19.53H6.75999C5.92801 19.53 5.12981 19.2009 4.53964 18.6145C3.94947 18.028 3.61527 17.232 3.60999 16.4V13.84C3.61255 13.7029 3.66816 13.5721 3.76513 13.4751C3.86209 13.3782 3.99287 13.3226 4.12999 13.32Z" fill="#FF70C8"/>
</svg>
