<svg width="24" height="24" viewBox="0 0 24 24" fill="none" xmlns="http://www.w3.org/2000/svg">
<path d="M13.5301 6.13496L13.5301 17.4539C13.5301 18.4533 12.7201 19.2527 11.7313 19.2527C10.7319 19.2527 9.93243 18.4427 9.93243 17.4539L9.93243 6.13496C9.93243 5.1356 10.7424 4.33613 11.7313 4.33613C12.7201 4.33613 13.5301 5.1356 13.5301 6.13496Z" fill="#FFAE00"/>
<path d="M13.0145 18.7268C12.3097 19.4316 11.1736 19.4316 10.4688 18.7268L4.84091 13.0988C4.13611 12.394 4.13611 11.2579 4.84091 10.5531C5.54572 9.84832 6.68182 9.84832 7.38663 10.5531L13.0145 16.1811C13.7194 16.8859 13.7194 18.022 13.0145 18.7268Z" fill="#F251D0"/>
<path d="M10.4688 18.7268C9.76404 18.022 9.76404 16.8859 10.4688 16.1811L16.0652 10.5847C16.77 9.87989 17.9061 9.87989 18.6109 10.5847C19.3157 11.2895 19.3157 12.4256 18.6109 13.1304L13.0146 18.7268C12.3098 19.4316 11.1736 19.4316 10.4688 18.7268Z" fill="#3366FF"/>
</svg>
