<svg width="24" height="24" viewBox="0 0 24 24" fill="none" xmlns="http://www.w3.org/2000/svg">
<path d="M17.3867 9.99158H6.06775C5.0684 9.99158 4.26892 10.8016 4.26892 11.7904C4.26892 12.7898 5.07892 13.5892 6.06775 13.5892H17.3867C18.3861 13.5892 19.1855 12.7792 19.1855 11.7904C19.1855 10.8016 18.3861 9.99158 17.3867 9.99158Z" fill="#FFAE00"/>
<path d="M4.7949 10.5071C4.0901 11.2119 4.0901 12.348 4.7949 13.0528L10.4228 18.6807C11.1276 19.3855 12.2637 19.3855 12.9685 18.6807C13.6733 17.9759 13.6733 16.8398 12.9685 16.135L7.34062 10.5071C6.63581 9.8023 5.49971 9.8023 4.7949 10.5071Z" fill="#F251D0"/>
<path d="M4.7949 13.0528C5.49971 13.7576 6.63581 13.7576 7.34061 13.0528L12.937 7.45646C13.6418 6.75166 13.6418 5.61555 12.937 4.91075C12.2322 4.20594 11.0961 4.20594 10.3913 4.91075L4.7949 10.5071C4.0901 11.2119 4.0901 12.348 4.7949 13.0528Z" fill="#3366FF"/>
</svg>
