<svg width="24" height="24" viewBox="0 0 24 24" fill="none" xmlns="http://www.w3.org/2000/svg">
<path d="M9.92175 17.4565L9.92175 6.13758C9.92175 5.13823 10.7318 4.33875 11.7206 4.33875C12.7199 4.33875 13.5194 5.14875 13.5194 6.13758L13.5194 17.4565C13.5194 18.4559 12.7094 19.2554 11.7206 19.2554C10.7318 19.2554 9.92175 18.4559 9.92175 17.4565Z" fill="#FFAE00"/>
<path d="M10.4373 4.86472C11.1421 4.15992 12.2782 4.15992 12.983 4.86472L18.6109 10.4926C19.3157 11.1975 19.3157 12.3336 18.6109 13.0384C17.9061 13.7432 16.77 13.7432 16.0652 13.0384L10.4373 7.41044C9.73246 6.70563 9.73246 5.56953 10.4373 4.86472Z" fill="#F251D0"/>
<path d="M12.983 4.86472C13.6878 5.56953 13.6878 6.70563 12.983 7.41044L7.38664 13.0068C6.68183 13.7116 5.54573 13.7116 4.84092 13.0068C4.13612 12.302 4.13612 11.1659 4.84092 10.4611L10.4373 4.86472C11.1421 4.15992 12.2782 4.15992 12.983 4.86472Z" fill="#3366FF"/>
</svg>
