<svg width="24" height="24" viewBox="0 0 24 24" fill="none" xmlns="http://www.w3.org/2000/svg">
<path d="M6.06513 9.99158H17.3841C18.3834 9.99158 19.1829 10.8016 19.1829 11.7904C19.1829 12.7898 18.3729 13.5892 17.3841 13.5892H6.06513C5.06578 13.5892 4.2663 12.7792 4.2663 11.7904C4.2663 10.8016 5.06578 9.99158 6.06513 9.99158Z" fill="#FFAE00"/>
<path d="M18.6569 10.5071C19.3617 11.2119 19.3617 12.348 18.6569 13.0528L13.029 18.6807C12.3242 19.3855 11.1881 19.3855 10.4833 18.6807C9.7785 17.9759 9.7785 16.8398 10.4833 16.135L16.1112 10.5071C16.816 9.8023 17.9521 9.8023 18.6569 10.5071Z" fill="#F251D0"/>
<path d="M18.6569 13.0528C17.9521 13.7576 16.816 13.7576 16.1112 13.0528L10.5149 7.45646C9.81006 6.75166 9.81006 5.61555 10.5149 4.91075C11.2197 4.20594 12.3558 4.20594 13.0606 4.91075L18.6569 10.5071C19.3617 11.2119 19.3617 12.348 18.6569 13.0528Z" fill="#3366FF"/>
</svg>
