<svg width="24" height="24" viewBox="0 0 24 24" fill="none" xmlns="http://www.w3.org/2000/svg">
<path d="M5.10999 6.28H18.89C19.4204 6.28 19.9291 6.49071 20.3042 6.86579C20.6793 7.24086 20.89 7.74957 20.89 8.28V17C20.89 17.5304 20.6793 18.0391 20.3042 18.4142C19.9291 18.7893 19.4204 19 18.89 19H7.10999C6.04912 19 5.0317 18.5786 4.28156 17.8284C3.53141 17.0783 3.10999 16.0609 3.10999 15V8.28C3.10999 7.74957 3.3207 7.24086 3.69577 6.86579C4.07084 6.49071 4.57955 6.28 5.10999 6.28Z" fill="#FFC720"/>
<path d="M13.41 7.79C14.1777 7.79 14.8 7.16992 14.8 6.405C14.8 5.64009 14.1777 5.02 13.41 5.02H10.57C9.80232 5.02 9.17999 5.64009 9.17999 6.405C9.17999 7.16992 9.80232 7.79 10.57 7.79H13.41Z" fill="#3984F7"/>
<path d="M7.67998 12.57C7.6796 12.3481 7.74694 12.1314 7.87301 11.9488C7.99908 11.7662 8.17788 11.6264 8.3855 11.5482C8.59312 11.4699 8.81969 11.4569 9.03492 11.5108C9.25015 11.5647 9.4438 11.6831 9.58998 11.85L10.68 12.93C10.7626 13.0128 10.8608 13.0786 10.969 13.1234C11.0771 13.1683 11.1929 13.1914 11.31 13.1914C11.427 13.1914 11.5429 13.1683 11.651 13.1234C11.7591 13.0786 11.8573 13.0128 11.94 12.93L14.94 9.88C15.1375 9.68079 15.4011 9.56066 15.681 9.54225C15.961 9.52383 16.238 9.6084 16.46 9.78001C16.5764 9.87719 16.6713 9.9976 16.7386 10.1336C16.8058 10.2695 16.844 10.418 16.8506 10.5695C16.8572 10.7211 16.8321 10.8723 16.7769 11.0136C16.7216 11.1549 16.6376 11.2831 16.53 11.39L12.82 15.1C12.6172 15.305 12.3759 15.4677 12.1098 15.5788C11.8437 15.6899 11.5583 15.7471 11.27 15.7471C10.9817 15.7471 10.6962 15.6899 10.4302 15.5788C10.1641 15.4677 9.92272 15.305 9.71998 15.1L7.95998 13.35C7.77123 13.1348 7.67116 12.8561 7.67998 12.57Z" fill="#FF70C8"/>
</svg>
