<svg width="24" height="24" viewBox="0 0 24 24" fill="none" xmlns="http://www.w3.org/2000/svg">
<path d="M8.1374 18.4662L8.82867 17.2911C9.07062 16.8878 9.4969 16.6344 9.96927 16.6344H14.0593C14.5317 16.6344 14.9695 16.8878 15.1999 17.2911L15.8912 18.4662C16.4096 19.3534 15.776 20.4709 14.7506 20.4709H9.26648C8.25261 20.4709 7.61895 19.3534 8.1374 18.4662Z" fill="#2475EA"/>
<path d="M18.9673 10.4014C18.9443 4.66381 15.799 3.22366 12.02 3.22366C11.3288 3.22366 10.649 3.26975 10.0154 3.38496C7.45764 3.84581 5.44143 5.41269 5.11884 9.24925C5.08428 9.62945 5.07275 10.0327 5.07275 10.459C5.07275 15.4822 8.22957 17.2911 12.02 17.2911C15.8105 17.2911 18.9673 15.4822 18.9673 10.459C18.9673 10.4359 18.9673 10.4129 18.9673 10.4014Z" fill="#FFBC00"/>
<path d="M12.02 12.913C10.5568 12.913 9.35861 11.7148 9.35861 10.2516C9.35861 8.78842 10.5568 7.59021 12.02 7.59021C13.4832 7.59021 14.6814 8.78842 14.6814 10.2516C14.6814 11.7148 13.4832 12.913 12.02 12.913Z" fill="#F251D0"/>
<path d="M12.02 8.29301C13.103 8.29301 13.9786 9.16862 13.9786 10.2516C13.9786 11.3346 13.103 12.2102 12.02 12.2102C10.937 12.2102 10.0614 11.3346 10.0614 10.2516C10.0614 9.16862 10.937 8.29301 12.02 8.29301ZM12.02 6.89894C10.1651 6.89894 8.65582 8.40822 8.65582 10.2631C8.65582 12.118 10.1651 13.6158 12.02 13.6158C13.8749 13.6158 15.3842 12.1065 15.3842 10.2516C15.3842 8.3967 13.8749 6.89894 12.02 6.89894Z" fill="#2475EA"/>
<path d="M11.8975 10.0165C12.049 9.86491 12.0527 9.62292 11.9058 9.47596C11.7588 9.329 11.5168 9.33272 11.3653 9.48427C11.2137 9.63582 11.21 9.87782 11.3569 10.0248C11.5039 10.1717 11.7459 10.168 11.8975 10.0165Z" fill="white"/>
<path d="M19.6865 20.7273C19.4176 20.7273 19.1486 20.622 18.9381 20.4233L3.03426 4.5194C2.62497 4.11011 2.62497 3.44355 3.03426 3.03426C3.44355 2.62497 4.11011 2.62497 4.5194 3.03426L20.4232 18.9381C20.8325 19.3474 20.8325 20.014 20.4232 20.4233C20.2245 20.622 19.9555 20.7273 19.6865 20.7273Z" fill="#FF3333"/>
</svg>
