<svg width="24" height="24" viewBox="0 0 24 24" fill="none" xmlns="http://www.w3.org/2000/svg">
<path d="M8.1374 18.4669L8.82867 17.2918C9.07062 16.8885 9.4969 16.6351 9.96927 16.6351H14.0593C14.5317 16.6351 14.9695 16.8885 15.1999 17.2918L15.8912 18.4669C16.4096 19.3541 15.776 20.4716 14.7506 20.4716H9.26648C8.25261 20.4716 7.61895 19.3541 8.1374 18.4669Z" fill="#2475EA"/>
<path d="M18.9673 10.4021C18.9443 4.66452 15.799 3.22437 12.02 3.22437C11.3288 3.22437 10.649 3.27045 10.0154 3.38566C7.45764 3.84651 5.44143 5.41339 5.11884 9.24996C5.08428 9.63016 5.07275 10.0334 5.07275 10.4597C5.07275 15.4829 8.22957 17.2918 12.02 17.2918C15.8105 17.2918 18.9673 15.4829 18.9673 10.4597C18.9673 10.4366 18.9673 10.4136 18.9673 10.4021Z" fill="#FFBC00"/>
<path d="M12.02 12.9137C10.5568 12.9137 9.35861 11.7155 9.35861 10.2523C9.35861 8.78912 10.5568 7.59091 12.02 7.59091C13.4832 7.59091 14.6814 8.78912 14.6814 10.2523C14.6814 11.7155 13.4832 12.9137 12.02 12.9137Z" fill="#F251D0"/>
<path d="M12.02 8.29371C13.103 8.29371 13.9786 9.16932 13.9786 10.2523C13.9786 11.3353 13.103 12.2109 12.02 12.2109C10.937 12.2109 10.0614 11.3353 10.0614 10.2523C10.0614 9.16932 10.937 8.29371 12.02 8.29371ZM12.02 6.89964C10.1651 6.89964 8.65582 8.40892 8.65582 10.2638C8.65582 12.1188 10.1651 13.6165 12.02 13.6165C13.8749 13.6165 15.3842 12.1072 15.3842 10.2523C15.3842 8.3974 13.8749 6.89964 12.02 6.89964Z" fill="#2475EA"/>
<path d="M11.8975 10.0172C12.049 9.86561 12.0527 9.62362 11.9058 9.47666C11.7588 9.3297 11.5168 9.33342 11.3653 9.48497C11.2137 9.63653 11.21 9.87852 11.3569 10.0255C11.5039 10.1724 11.7459 10.1687 11.8975 10.0172Z" fill="white"/>
</svg>
