<svg width="24" height="24" viewBox="0 0 24 24" fill="none" xmlns="http://www.w3.org/2000/svg">
<path d="M11.0959 7.69042C11.8007 6.98562 12.9368 6.98562 13.6416 7.69042L19.2696 13.3183C19.9744 14.0232 19.9744 15.1593 19.2696 15.8641C18.5648 16.5689 17.4287 16.5689 16.7238 15.8641L11.0959 10.2361C10.3911 9.53133 10.3911 8.39523 11.0959 7.69042Z" fill="#F251D0"/>
<path d="M13.6417 7.69042C14.3465 8.39523 14.3465 9.53133 13.6417 10.2361L8.0453 15.8325C7.34049 16.5373 6.20439 16.5373 5.49958 15.8325C4.79478 15.1277 4.79478 13.9916 5.49958 13.2868L11.0959 7.69042C11.8008 6.98562 12.9369 6.98562 13.6417 7.69042Z" fill="#2475EA"/>
</svg>
