<svg width="24" height="24" viewBox="0 0 24 24" fill="none" xmlns="http://www.w3.org/2000/svg">
<path d="M13.6732 16.8641C12.9684 17.5689 11.8323 17.5689 11.1275 16.8641L5.49957 11.2361C4.79477 10.5313 4.79477 9.39523 5.49957 8.69043C6.20438 7.98562 7.34048 7.98562 8.04529 8.69043L13.6732 14.3184C14.378 15.0232 14.378 16.1593 13.6732 16.8641Z" fill="#F251D0"/>
<path d="M11.1275 16.8641C10.4227 16.1593 10.4227 15.0232 11.1275 14.3184L16.7238 8.72199C17.4286 8.01718 18.5647 8.01718 19.2696 8.72199C19.9744 9.42679 19.9744 10.5629 19.2696 11.2677L13.6732 16.8641C12.9684 17.5689 11.8323 17.5689 11.1275 16.8641Z" fill="#2475EA"/>
</svg>
