<svg width="24" height="24" viewBox="0 0 24 24" fill="none" xmlns="http://www.w3.org/2000/svg">
<path d="M7.07408 10.4886C6.36927 11.1934 6.36927 12.3295 7.07408 13.0343L12.702 18.6622C13.4068 19.3671 14.5429 19.3671 15.2477 18.6622C15.9525 17.9574 15.9525 16.8213 15.2477 16.1165L9.61979 10.4886C8.91499 9.78381 7.77888 9.78381 7.07408 10.4886Z" fill="#F251D0"/>
<path d="M7.07407 13.0343C7.77888 13.7391 8.91498 13.7391 9.61979 13.0343L15.2162 7.43797C15.921 6.73316 15.921 5.59706 15.2162 4.89225C14.5113 4.18745 13.3752 4.18745 12.6704 4.89225L7.07407 10.4886C6.36927 11.1934 6.36927 12.3295 7.07407 13.0343Z" fill="#2475EA"/>
</svg>
