<svg width="24" height="24" viewBox="0 0 24 24" fill="none" xmlns="http://www.w3.org/2000/svg">
<path d="M16.4714 10.4886C17.1762 11.1934 17.1762 12.3295 16.4714 13.0343L10.8435 18.6622C10.1387 19.3671 9.00256 19.3671 8.29776 18.6622C7.59295 17.9574 7.59295 16.8213 8.29776 16.1165L13.9257 10.4886C14.6305 9.78381 15.7666 9.78381 16.4714 10.4886Z" fill="#F251D0"/>
<path d="M16.4714 13.0343C15.7666 13.7391 14.6305 13.7391 13.9257 13.0343L8.32932 7.43797C7.62451 6.73316 7.62451 5.59706 8.32932 4.89225C9.03412 4.18745 10.1702 4.18745 10.875 4.89225L16.4714 10.4886C17.1762 11.1934 17.1762 12.3295 16.4714 13.0343Z" fill="#2475EA"/>
</svg>
