<svg width="24" height="24" viewBox="0 0 24 24" fill="none" xmlns="http://www.w3.org/2000/svg">
<path d="M5.10999 5.65H18.89C19.4204 5.65 19.9291 5.86072 20.3042 6.23579C20.6793 6.61086 20.89 7.11957 20.89 7.65V16.35C20.89 16.8804 20.6793 17.3891 20.3042 17.7642C19.9291 18.1393 19.4204 18.35 18.89 18.35H7.10999C6.04912 18.35 5.0317 17.9286 4.28156 17.1784C3.53141 16.4283 3.10999 15.4109 3.10999 14.35V7.65C3.10999 7.11957 3.3207 6.61086 3.69577 6.23579C4.07084 5.86072 4.57955 5.65 5.10999 5.65Z" fill="#FFC720"/>
<path d="M3.25 15.33C3.47157 16.1881 3.97186 16.9484 4.67231 17.4914C5.37277 18.0344 6.23373 18.3294 7.12 18.33H18.89C19.4204 18.33 19.9291 18.1193 20.3042 17.7442C20.6793 17.3692 20.89 16.8605 20.89 16.33V15.33H3.25Z" fill="#3984F7"/>
<path d="M18.71 13.18H13.51C13.0185 13.18 12.62 13.5785 12.62 14.07V16.17C12.62 16.6615 13.0185 17.06 13.51 17.06H18.71C19.2015 17.06 19.6 16.6615 19.6 16.17V14.07C19.6 13.5785 19.2015 13.18 18.71 13.18Z" fill="#FF70C8"/>
<path d="M16.52 13.07H15.69C15.5795 13.07 15.49 13.1595 15.49 13.27V16.97C15.49 17.0805 15.5795 17.17 15.69 17.17H16.52C16.6304 17.17 16.72 17.0805 16.72 16.97V13.27C16.72 13.1595 16.6304 13.07 16.52 13.07Z" fill="white"/>
</svg>
