<svg width="24" height="24" viewBox="0 0 24 24" fill="none" xmlns="http://www.w3.org/2000/svg">
<path d="M8.90806 19.1194V16.559H18.0614C18.1834 16.5604 18.3045 16.5375 18.4177 16.4918C18.5308 16.446 18.6337 16.3783 18.7205 16.2925C18.8073 16.2067 18.8761 16.1045 18.9232 15.9919C18.9702 15.8792 18.9944 15.7584 18.9944 15.6364V4.94885C18.9944 4.43198 18.789 3.93629 18.4236 3.57081C18.0581 3.20533 17.5624 3 17.0455 3H6.94885C6.43198 3 5.93628 3.20533 5.5708 3.57081C5.20533 3.93629 5 4.43198 5 4.94885V17.5023C5 18.536 5.41065 19.5274 6.14161 20.2584C6.87257 20.9894 7.86396 21.4 8.89769 21.4H17.8852C18.1876 21.4 18.4776 21.2799 18.6915 21.066C18.9053 20.8522 19.0255 20.5621 19.0255 20.2597C19.0255 19.9573 18.9053 19.6673 18.6915 19.4534C18.4776 19.2396 18.1876 19.1194 17.8852 19.1194H8.90806Z" fill="#FFC720"/>
<path d="M9.41602 8.00688V8.05871C9.41602 8.7858 10.0054 9.37522 10.7325 9.37522H14.2778C15.0048 9.37522 15.5943 8.7858 15.5943 8.05871V8.00688C15.5943 7.2798 15.0048 6.69038 14.2778 6.69038H10.7325C10.0054 6.69038 9.41602 7.2798 9.41602 8.00688Z" fill="#3984F7"/>
<path d="M8.52452 16.5072H17.4291C17.504 16.5072 17.5781 16.5219 17.6473 16.5506C17.7164 16.5792 17.7793 16.6212 17.8322 16.6742C17.8852 16.7271 17.9272 16.79 17.9558 16.8591C17.9845 16.9283 17.9992 17.0024 17.9992 17.0773V18.5597C17.9992 18.6346 17.9845 18.7087 17.9558 18.7779C17.9272 18.847 17.8852 18.9099 17.8322 18.9628C17.7793 19.0158 17.7164 19.0578 17.6473 19.0864C17.5781 19.1151 17.504 19.1298 17.4291 19.1298H8.52452C8.17895 19.1271 7.8483 18.9886 7.60394 18.7443C7.35958 18.4999 7.22109 18.1693 7.21838 17.8237C7.21838 17.4745 7.35709 17.1397 7.60398 16.8928C7.85087 16.6459 8.18573 16.5072 8.53489 16.5072H8.52452Z" fill="#FF70C8"/>
</svg>
