<svg width="24" height="24" viewBox="0 0 24 24" fill="none" xmlns="http://www.w3.org/2000/svg">
<path d="M16.4694 18.0246H7.53064C5.7865 18.0246 4.36365 16.6018 4.36365 14.8576V9.64815C4.36365 7.90401 5.7865 6.48117 7.53064 6.48117H16.4694C18.2135 6.48117 19.6364 7.90401 19.6364 9.64815V14.8576C19.6249 16.6018 18.202 18.0246 16.4694 18.0246Z" fill="#FFBC00"/>
<path d="M13.3942 8.06464H10.6058C9.98621 8.06464 9.4928 7.55976 9.4928 6.95161V6.02218C9.4928 5.40255 9.99768 4.90912 10.6058 4.90912H13.3942C14.0138 4.90912 14.5072 5.41402 14.5072 6.02218V6.95161C14.5072 7.55976 14.0138 8.06464 13.3942 8.06464Z" fill="#F251D0"/>
<path d="M8.97644 16.1543H8.1388C7.62244 16.1543 7.20935 15.7412 7.20935 15.2249V14.6626C7.20935 14.1462 7.62244 13.7332 8.1388 13.7332H8.97644C9.4928 13.7332 9.90589 14.1462 9.90589 14.6626V15.2249C9.90589 15.7412 9.48133 16.1543 8.97644 16.1543Z" fill="#2475EA"/>
<path d="M12.4189 16.1542H11.5812C11.0649 16.1542 10.6518 15.7412 10.6518 15.2248V12.8955C10.6518 12.3791 11.0649 11.966 11.5812 11.966H12.4189C12.9352 11.966 13.3483 12.3791 13.3483 12.8955V15.2248C13.3483 15.7412 12.9352 16.1542 12.4189 16.1542Z" fill="#2475EA"/>
<path d="M15.8612 16.1543H15.0236C14.5072 16.1543 14.0941 15.7412 14.0941 15.2248V11.1284C14.0941 10.612 14.5072 10.1989 15.0236 10.1989H15.8612C16.3776 10.1989 16.7907 10.612 16.7907 11.1284V15.2248C16.7907 15.7412 16.3776 16.1543 15.8612 16.1543Z" fill="#2475EA"/>
</svg>
