<svg width="24" height="24" viewBox="0 0 24 24" fill="none" xmlns="http://www.w3.org/2000/svg">
<path d="M14.8064 20H8.80639C7.58059 20 6.61285 19.0323 6.61285 17.8065V9.35486H16.9999V17.8065C16.9999 19.0323 16.0322 20 14.8064 20Z" fill="#3984F7"/>
<path d="M17.3226 9.61295H6.09678C5.51614 9.61295 5 9.09681 5 8.51617V8.45165C5 7.87101 5.51614 7.35489 6.09678 7.35489H17.3226C17.9032 7.35489 18.4193 7.87101 18.4193 8.45165V8.51617C18.4193 9.09681 17.9032 9.61295 17.3226 9.61295Z" fill="#FF70C8"/>
<path d="M14.6774 9.16128C14.1613 9.16128 13.7097 8.70967 13.7097 8.19354V6.19354C13.7097 6.06451 13.5806 5.93548 13.4516 5.93548H10.1613C10.0323 5.93548 9.90322 6.06451 9.90322 6.19354V8.19354C9.90322 8.70967 9.45161 9.16128 8.93548 9.16128C8.41935 9.16128 7.96774 8.70967 7.96774 8.19354V6.19354C7.96774 4.96774 8.93548 4 10.1613 4H13.4516C14.6774 4 15.6451 4.96774 15.6451 6.19354V8.19354C15.6451 8.77418 15.1935 9.16128 14.6774 9.16128Z" fill="#FF70C8"/>
<path d="M9.90326 17.2903C9.45165 17.2903 9.06454 16.9032 9.06454 16.4516V12.0645C9.06454 11.6129 9.45165 11.2258 9.90326 11.2258C10.3549 11.2258 10.742 11.6129 10.742 12.0645V16.4516C10.742 16.9032 10.3549 17.2903 9.90326 17.2903Z" fill="#FFC720"/>
<path d="M13.7097 17.2903C13.2581 17.2903 12.871 16.9032 12.871 16.4516V12.0645C12.871 11.6129 13.2581 11.2258 13.7097 11.2258C14.1613 11.2258 14.5484 11.6129 14.5484 12.0645V16.4516C14.5484 16.9032 14.1613 17.2903 13.7097 17.2903Z" fill="#FFC720"/>
</svg>
