<svg width="24" height="24" viewBox="0 0 24 24" fill="none" xmlns="http://www.w3.org/2000/svg">
<path d="M19.48 4.05H4.53003C3.9996 4.05 3.49089 4.26072 3.11581 4.63579C2.74074 5.01086 2.53003 5.51957 2.53003 6.05V13.05C2.5537 14.4134 3.11399 15.7124 4.08936 16.6653C5.06472 17.6182 6.37647 18.1481 7.74002 18.14H19.48C20.0105 18.14 20.5192 17.9293 20.8942 17.5542C21.2693 17.1791 21.48 16.6704 21.48 16.14V6.02C21.4721 5.49479 21.258 4.99375 20.8837 4.62514C20.5095 4.25653 20.0053 4.04994 19.48 4.05Z" fill="#FFC720"/>
<path d="M17.21 6.60001H7.09003C6.55959 6.60001 6.05088 6.81072 5.67581 7.18579C5.30074 7.56087 5.09003 8.06957 5.09003 8.60001V12.25C5.0957 12.6822 5.18968 13.1086 5.3662 13.5031C5.54271 13.8976 5.79802 14.2518 6.11646 14.544C6.43489 14.8362 6.80972 15.0602 7.2179 15.2023C7.62607 15.3443 8.05898 15.4014 8.49002 15.37H17.19C17.7205 15.37 18.2292 15.1593 18.6042 14.7842C18.9793 14.4091 19.19 13.9004 19.19 13.37V8.58001C19.1848 8.05649 18.9745 7.55589 18.6043 7.18569C18.2341 6.81549 17.7335 6.60522 17.21 6.60001Z" fill="#3984F7"/>
<path d="M14.09 21.14H10.54C10.366 21.1401 10.1943 21.1 10.0383 21.0228C9.88234 20.9456 9.74629 20.8334 9.64079 20.695C9.53529 20.5566 9.46318 20.3957 9.43009 20.2248C9.39701 20.054 9.40383 19.8778 9.45004 19.71L9.96003 18.1C10.0259 17.8587 10.1692 17.6457 10.368 17.494C10.5668 17.3422 10.8099 17.26 11.06 17.26H13.58C13.8293 17.2588 14.0718 17.3407 14.2693 17.4928C14.4667 17.645 14.6077 17.8587 14.67 18.1L15.19 19.71C15.2344 19.8785 15.2395 20.0549 15.205 20.2256C15.1705 20.3964 15.0973 20.557 14.9911 20.6951C14.8849 20.8331 14.7485 20.9451 14.5922 21.0222C14.436 21.0993 14.2642 21.1396 14.09 21.14Z" fill="#FF70C8"/>
</svg>
