<svg width="24" height="24" viewBox="0 0 24 24" fill="none" xmlns="http://www.w3.org/2000/svg">
<path d="M19.8739 5.89233H15.2951C15.1072 5.89233 14.9269 5.96701 14.794 6.09992C14.661 6.23284 14.5864 6.41312 14.5864 6.60109V10.1224H10.0413C9.94825 10.1224 9.85608 10.1407 9.77009 10.1763C9.6841 10.212 9.60597 10.2642 9.54015 10.33C9.47434 10.3958 9.42213 10.4739 9.38651 10.5599C9.3509 10.6459 9.33256 10.7381 9.33256 10.8311V14.3524H4.70876C4.52078 14.3524 4.34051 14.4271 4.20759 14.56C4.07467 14.6929 4 14.8732 4 15.0612V17.885C4 18.4459 4.22283 18.9839 4.61948 19.3805C5.01612 19.7772 5.55409 20 6.11503 20H19.8739C20.0619 20 20.2422 19.9253 20.3751 19.7924C20.508 19.6595 20.5827 19.4792 20.5827 19.2912V6.60109C20.5827 6.41312 20.508 6.23284 20.3751 6.09992C20.2422 5.96701 20.0619 5.89233 19.8739 5.89233Z" fill="#FFC720"/>
<path d="M10.9974 3.28701C11.0087 3.1154 10.9832 2.94336 10.9225 2.78238C10.8618 2.62141 10.7673 2.47522 10.6453 2.35361C10.5233 2.23201 10.3767 2.13778 10.2152 2.07725C10.0538 2.01672 9.8812 1.99128 9.70907 2.00263L5.84422 2.19529C5.71952 2.21229 5.60215 2.26397 5.50555 2.34441C5.40895 2.42485 5.33704 2.53079 5.29804 2.65009C5.25905 2.7694 5.25456 2.89724 5.28508 3.01897C5.3156 3.14071 5.37991 3.2514 5.47062 3.33838L6.42395 4.28882C6.46332 4.32603 6.49468 4.37084 6.51611 4.42052C6.53754 4.47021 6.54859 4.52372 6.54859 4.57781C6.54859 4.63189 6.53754 4.68541 6.51611 4.73509C6.49468 4.78478 6.46332 4.82959 6.42395 4.86679L4.34981 7.0117C4.23916 7.1183 4.15117 7.24602 4.09107 7.38724C4.03097 7.52846 4 7.68029 4 7.8337C4 7.9871 4.03097 8.13894 4.09107 8.28016C4.15117 8.42138 4.23916 8.5491 4.34981 8.6557C4.45875 8.76482 4.58823 8.85141 4.73083 8.9105C4.87343 8.96958 5.02633 9 5.18076 9C5.33518 9 5.48808 8.96958 5.63068 8.9105C5.77328 8.85141 5.90277 8.76482 6.0117 8.6557L8.12448 6.54932C8.20318 6.47619 8.30677 6.43553 8.41435 6.43553C8.52193 6.43553 8.62551 6.47619 8.70421 6.54932L9.65754 7.5126C9.7472 7.60221 9.86013 7.66512 9.98366 7.69428C10.1072 7.72343 10.2364 7.71767 10.3569 7.67765C10.4773 7.63763 10.5842 7.56492 10.6654 7.46771C10.7467 7.37049 10.7992 7.2526 10.817 7.12729L10.9974 3.28701Z" fill="#FF70C8"/>
</svg>
