<svg width="24" height="24" viewBox="0 0 24 24" fill="none" xmlns="http://www.w3.org/2000/svg">
<path d="M12.031 20.6486C13.526 20.6486 14.9502 20.3254 16.233 19.7496C16.2229 19.6486 16.2128 19.5375 16.2128 19.5072C16.0916 17.8507 15.9502 16.3557 15.93 16.0931C15.9098 15.9214 15.8896 15.7295 15.8694 15.6285C15.8492 15.5477 15.7179 15.5073 15.6573 15.5881C15.6269 15.6285 15.5865 15.6689 15.5461 15.7295C15.0411 16.3355 13.3239 16.4669 12.4351 16.4669H12.1421C11.2432 16.4669 9.53611 16.3355 9.03107 15.7295C8.98056 15.6689 8.95026 15.6285 8.91996 15.5881C8.85935 15.4972 8.71794 15.5376 8.70784 15.6285C8.68764 15.7295 8.66743 15.9214 8.64723 16.0931C8.61693 16.3658 8.47552 17.9012 8.35431 19.588C8.35431 19.6385 8.33411 19.8203 8.3139 19.9416C9.4553 20.3961 10.7078 20.6486 12.031 20.6486Z" fill="#0074F2"/>
<path d="M8.81893 15.6386C7.67753 14.2042 7.40481 12.3154 6.43512 10.8305C6.122 10.3154 5.80887 9.79015 5.48564 9.2851C4.47555 7.96189 6.09169 6.82049 6.98057 8.21441C7.22299 8.50734 8.29369 10.4164 8.61692 9.58813C8.29369 8.45683 7.68763 7.42654 7.2533 6.33564C7.01087 5.8306 7.07148 5.17404 7.69774 4.99223C8.51591 4.7094 8.87954 5.39626 9.10176 6.00232C9.42499 6.74978 9.74822 7.48715 10.1118 8.21441C10.1927 8.43663 10.5563 8.84066 10.7987 8.55784C10.8795 8.42653 10.8391 8.32552 10.7785 7.98209C10.5462 6.65887 10.1523 5.34576 10.0209 4.01244C10.0007 2.77003 11.6876 2.78013 11.9603 3.94173C12.1825 4.82051 12.3239 5.71949 12.526 6.59827C12.6674 7.04271 12.6472 7.56795 12.9098 7.96189C13.1623 8.25481 13.5462 7.92148 13.5259 7.61846C13.6068 6.60837 13.6371 5.58818 13.6876 4.57809C13.6876 3.97204 13.9805 3.32558 14.7078 3.39629C15.334 3.35588 15.6673 3.96194 15.6269 4.51748C15.5865 5.64878 15.4956 6.79018 15.4552 7.92148C15.4148 8.67905 15.4148 9.87095 15.435 10.0831C15.4754 10.477 15.8593 10.5275 16.1421 10.2043C16.2633 10.073 17.0613 9.2649 17.5158 8.81036C17.9602 8.36592 18.4855 8.29522 18.8491 8.55784C19.0814 8.72956 19.1925 9.2144 18.9703 9.74974C18.9703 9.74974 17.6572 12.3861 17.0613 13.5174C16.7784 14.0527 16.2734 15.1032 15.6976 15.7093C15.5158 15.9012 15.5562 16.0527 15.3643 16.1234C15.2532 16.1638 14.7886 16.3355 14.6774 16.3759C14.2027 16.5375 13.4552 16.5779 12.6573 16.6183C11.4553 16.6689 10.1422 16.4971 9.37448 16.1638C9.14216 16.0426 8.95025 15.8305 8.81893 15.6386Z" fill="#FFBC00"/>
<path d="M12.1421 18.9416C13.7886 18.9416 15.3946 18.5476 16.0815 17.8002C16.0108 16.9214 15.9502 16.2648 15.93 16.0931C15.9097 15.9214 15.8895 15.7295 15.8693 15.6285C15.8491 15.5477 15.7178 15.5073 15.6572 15.5881C15.6269 15.6285 15.5865 15.6689 15.5461 15.7295C15.0411 16.3355 13.3239 16.4669 12.435 16.4669H12.132C11.233 16.4669 9.52599 16.3355 9.02094 15.7295C8.97044 15.6689 8.94014 15.6285 8.90983 15.5881C8.84923 15.4972 8.70781 15.5376 8.69771 15.6285C8.67751 15.7295 8.65731 15.9214 8.63711 16.0931C8.61691 16.2749 8.5462 17.0224 8.46539 18.0022C9.15225 18.6386 10.6573 18.9416 12.1421 18.9416Z" fill="#F958CF"/>
</svg>
