<svg width="24" height="24" viewBox="0 0 24 24" fill="none" xmlns="http://www.w3.org/2000/svg">
<path d="M19.77 5.28C19.77 5.06798 19.7238 4.8585 19.6346 4.66613C19.5454 4.47377 19.4154 4.30314 19.2537 4.16609C19.0919 4.02905 18.9022 3.92889 18.6978 3.87258C18.4934 3.81626 18.2791 3.80515 18.07 3.84C16.63 4.07 15.42 4.94 13.79 4.77C12.16 4.6 11.72 5.77 11.72 6.88V9.6H19.72L19.77 6V5.28Z" fill="#FF70C8"/>
<path d="M4.16 9.94V18.07C4.16264 19.0028 4.53435 19.8965 5.1939 20.5561C5.85346 21.2157 6.74725 21.5874 7.68 21.59H8.29C8.66396 21.59 9.0226 21.4414 9.28702 21.177C9.55145 20.9126 9.7 20.554 9.7 20.18V17.46C9.7 17.1663 9.75801 16.8755 9.8707 16.6043C9.9834 16.3331 10.1486 16.0868 10.3567 15.8796C10.5648 15.6724 10.8118 15.5083 11.0835 15.3969C11.3553 15.2854 11.6463 15.2287 11.94 15.23C12.5314 15.23 13.0986 15.4649 13.5169 15.8832C13.9351 16.3014 14.17 16.8686 14.17 17.46V20.17C14.17 20.544 14.3186 20.9026 14.583 21.167C14.8474 21.4314 15.206 21.58 15.58 21.58H16.19C17.1218 21.58 18.0156 21.2105 18.6755 20.5526C19.3353 19.8946 19.7074 19.0018 19.71 18.07V9.94H4.16Z" fill="#FFC720"/>
<path d="M10.71 2.86L3.07 9.34C2.78121 9.5853 2.57471 9.91335 2.47841 10.2798C2.38211 10.6463 2.40066 11.0335 2.53155 11.3891C2.66244 11.7446 2.89935 12.0515 3.21027 12.268C3.52118 12.4846 3.8911 12.6005 4.27 12.6H19.71C20.0928 12.6034 20.4671 12.488 20.7816 12.2696C21.096 12.0513 21.3349 11.7408 21.4655 11.381C21.596 11.0212 21.6117 10.6297 21.5105 10.2606C21.4092 9.89146 21.1959 9.56283 20.9 9.32L13.07 2.85C12.7362 2.5784 12.3185 2.43095 11.8882 2.43277C11.4579 2.43459 11.0415 2.58558 10.71 2.86Z" fill="#3984F7"/>
</svg>
