<svg width="24" height="24" viewBox="0 0 24 24" fill="none" xmlns="http://www.w3.org/2000/svg">
<path d="M12 19C15.866 19 19 15.866 19 12C19 8.13401 15.866 5 12 5C8.13401 5 5 8.13401 5 12C5 15.866 8.13401 19 12 19Z" fill="#FFB000"/>
<path d="M11.087 9.32173C11.087 9.2 11.087 9.07825 11.1478 8.95651C11.2087 8.83477 11.2696 8.71304 11.3304 8.65217C11.3913 8.5913 11.5131 8.53043 11.6348 8.46956C11.7565 8.4087 11.8783 8.40869 12.0609 8.40869C12.2435 8.40869 12.3652 8.4087 12.487 8.46956C12.6087 8.53043 12.7304 8.5913 12.7913 8.65217C12.8522 8.71304 12.9739 8.83477 12.9739 8.95651C13.0348 9.07825 13.0348 9.2 13.0348 9.32173C13.0348 9.44347 13.0348 9.56522 12.9739 9.68696C12.9131 9.8087 12.8522 9.93043 12.7913 9.9913C12.7304 10.0522 12.6087 10.113 12.487 10.1739C12.3652 10.2348 12.2435 10.2348 12.0609 10.2348C11.8783 10.2348 11.7565 10.2348 11.6348 10.1739C11.5131 10.113 11.3913 10.0522 11.3304 9.9913C11.2696 9.93043 11.1478 9.8087 11.1478 9.68696C11.1478 9.56522 11.087 9.44347 11.087 9.32173ZM11.2087 11.7565C11.2087 11.513 11.2696 11.3304 11.4522 11.2087C11.6348 11.087 11.8174 11.0261 12.1826 11.0261C12.487 11.0261 12.7305 11.087 12.9131 11.2087C13.0957 11.3304 13.1565 11.513 13.1565 11.7565V14.9826C13.1565 15.2261 13.0957 15.4087 12.9131 15.5304C12.7305 15.6522 12.5478 15.713 12.1826 15.713C11.8783 15.713 11.6348 15.6522 11.4522 15.5304C11.2696 15.4087 11.2087 15.2261 11.2087 14.9826V11.7565Z" fill="#2475EA"/>
</svg>
