<svg width="24" height="24" viewBox="0 0 24 24" fill="none" xmlns="http://www.w3.org/2000/svg">
<path d="M17.0477 17.314H6.96759V5.46707H15.8937C17.0171 5.46707 17.926 6.37602 17.926 7.49944V16.4357C17.926 16.926 17.5277 17.314 17.0477 17.314Z" fill="#C5EAF9"/>
<path d="M15.8529 18.9889H10.5626C8.41786 18.9889 6.85529 17.5693 6.85529 15.6187V6.26366C6.85529 5.48748 7.48849 4.85428 8.26467 4.85428H15.8529C17.0069 4.85428 17.9363 5.78365 17.9363 6.93771V7.6424C17.9363 8.16326 17.538 8.62284 17.0171 8.63305C16.4758 8.65348 16.0367 8.21433 16.0367 7.68325V7.28495C16.0367 6.99899 15.8018 6.76409 15.5158 6.76409H8.7651V15.6289C8.7651 16.7115 9.73532 17.0893 10.5626 17.0893H15.5158C15.8018 17.0893 16.0367 16.8544 16.0367 16.5685V16.3847C16.0367 15.8638 16.435 15.4042 16.9558 15.394C17.4971 15.3736 17.9363 15.8127 17.9363 16.3438V16.9157C17.9363 18.0596 16.9967 18.9889 15.8529 18.9889Z" fill="#2475EA"/>
<path d="M4.79224 5.43635V17.702C4.79224 18.2944 5.18033 18.805 5.75225 18.9685L11.4715 20.5515C12.3089 20.7863 13.126 20.1531 13.126 19.285V4.08824C13.126 3.24057 12.3396 2.61758 11.5123 2.81163L5.7931 4.16994C5.21097 4.30271 4.79224 4.83378 4.79224 5.43635Z" fill="#FFB000"/>
<path d="M10.3787 12.7897C10.892 12.7897 11.3081 12.3736 11.3081 11.8603C11.3081 11.3471 10.892 10.931 10.3787 10.931C9.86544 10.931 9.44934 11.3471 9.44934 11.8603C9.44934 12.3736 9.86544 12.7897 10.3787 12.7897Z" fill="#F958CF"/>
<path d="M20.9184 11.5027L18.6818 9.3376C18.2937 8.96994 17.6503 9.23547 17.6503 9.77676V14.3317C17.6503 14.8628 18.2937 15.1385 18.6818 14.7709L20.9184 12.6057C21.235 12.3096 21.235 11.8091 20.9184 11.5027Z" fill="#F958CF"/>
<path d="M19.0903 13.0857H15.5465C14.9745 13.0857 14.515 12.6262 14.515 12.0542C14.515 11.4823 14.9745 11.0227 15.5465 11.0227H19.0903C19.6623 11.0227 20.1218 11.4823 20.1218 12.0542C20.1218 12.6262 19.652 13.0857 19.0903 13.0857Z" fill="#F958CF"/>
</svg>
