<svg width="24" height="24" viewBox="0 0 24 24" fill="none" xmlns="http://www.w3.org/2000/svg">
<path d="M9.17195 14.0411C8.66364 14.0411 8.25308 13.6305 8.25308 13.1222V7.56339C8.25308 7.53081 8.25308 7.49822 8.2596 7.46564C8.3769 6.39037 9.27622 4.36365 11.8243 4.36365C14.3789 4.36365 15.2717 6.39037 15.389 7.46564C15.3955 7.49822 15.3955 7.53081 15.3955 7.56339V10.8935C15.3955 11.4018 14.9849 11.8123 14.4766 11.8123C13.9683 11.8123 13.5578 11.4018 13.5578 10.8935V7.62204C13.5056 7.31575 13.2319 6.20138 11.8243 6.20138C10.3906 6.20138 10.1364 7.34834 10.0908 7.62204V13.1222C10.0973 13.6305 9.68026 14.0411 9.17195 14.0411Z" fill="#898A8D"/>
<path d="M8.0313 10.7175H7.50995C6.96254 10.7175 6.54547 11.2975 6.54547 11.8515V17.1561C6.54547 17.6253 6.86479 18.0294 7.32097 18.1336C8.85241 18.479 10.4295 18.655 12 18.655C13.5706 18.655 15.0955 18.479 16.6269 18.1336C17.0831 18.0294 17.4546 17.6253 17.4546 17.1561V11.8254C17.4546 11.2715 16.9984 10.7175 16.451 10.7175H15.9687H13.4924H10.4816H8.0313Z" fill="#FFBC00"/>
<path d="M12.7754 14.7514C12.5995 14.8948 12.5213 15.1228 12.5213 15.3509C12.5213 15.755 12.5213 16.3024 12.5213 16.3024C12.5213 16.5761 12.2867 16.7977 11.9999 16.8107H11.9348C11.6415 16.7911 11.4134 16.5696 11.4134 16.3024C11.4134 16.3024 11.4134 15.755 11.4134 15.3509C11.4134 15.1228 11.3287 14.9013 11.1593 14.7514C10.8855 14.5233 10.7096 14.1649 10.7096 13.8064C10.7096 13.1743 11.2635 12.7247 11.9478 12.7181H11.9869C12.6712 12.7247 13.2251 13.1743 13.2251 13.8064C13.2251 14.1584 13.0556 14.5168 12.7754 14.7514Z" fill="#3476D4"/>
</svg>
