<svg width="24" height="24" viewBox="0 0 24 24" fill="none" xmlns="http://www.w3.org/2000/svg">
<path d="M12.0465 17.0056C9.11047 17.0056 6.53847 14.9973 5.90427 12.1787C5.81032 11.7794 6.06869 11.3684 6.468 11.2861C6.87905 11.1922 7.27836 11.4506 7.36057 11.8499C7.84208 14.0226 9.8621 15.5611 12.1522 15.5023C14.3837 15.4436 16.1805 13.9638 16.5094 11.8968C16.5798 11.4858 16.9557 11.2039 17.3667 11.2744C17.7778 11.3449 18.0596 11.7207 17.9892 12.1317C17.5429 14.9269 15.147 16.9352 12.1875 17.0056C12.1405 17.0056 12.0935 17.0056 12.0465 17.0056Z" fill="#2475EA"/>
<path d="M11.9526 19.9652C11.5415 19.9652 11.201 19.6246 11.201 19.2136V16.2423C11.201 15.8312 11.5415 15.4906 11.9526 15.4906C12.3636 15.4906 12.7042 15.8312 12.7042 16.2423V19.2136C12.7042 19.6364 12.3636 19.9652 11.9526 19.9652Z" fill="#2475EA"/>
<path d="M8.66418 19.9065C8.66418 19.1431 9.27489 18.5324 10.0383 18.5324H13.8669C14.6303 18.5324 15.241 19.1431 15.241 19.9065C15.241 20.1414 15.0531 20.3293 14.8182 20.3293H9.09872C8.85209 20.341 8.66418 20.1414 8.66418 19.9065Z" fill="#2475EA"/>
<path d="M8.26489 10.4993C8.26489 12.5311 9.9091 14.1753 11.9409 14.1753C13.9726 14.1753 15.6168 12.5311 15.6168 10.4993V9.28963H8.26489V10.4993Z" fill="#F251D0"/>
<path d="M11.9526 3.02991C9.92084 3.02991 8.27664 4.67411 8.27664 6.70587V9.28962H15.6286V6.70587C15.6286 4.67411 13.9844 3.02991 11.9526 3.02991Z" fill="#FFBC00"/>
</svg>
