<svg width="24" height="24" viewBox="0 0 24 24" fill="none" xmlns="http://www.w3.org/2000/svg">
<path d="M8.83731 19.8709C8.83731 19.1109 9.4453 18.5029 10.2053 18.5029H14.0286C14.7886 18.5029 15.3966 19.1109 15.3966 19.8709C15.3966 20.1047 15.2095 20.2918 14.9757 20.2918H9.26992C9.02439 20.2918 8.83731 20.1047 8.83731 19.8709Z" fill="#2475EA"/>
<path d="M8.43979 10.4704C8.43979 12.5048 10.0884 14.1417 12.1111 14.1417C14.1455 14.1417 15.7824 12.4931 15.7824 10.4704V9.26611H8.43979V10.4704Z" fill="#F251D0"/>
<path d="M12.1228 3.01083C10.0884 3.01083 8.45148 4.65942 8.45148 6.68216V9.25442H15.7941V6.68216C15.7941 4.65942 14.1455 3.01083 12.1228 3.01083Z" fill="#FFBC00"/>
<path d="M12.2163 16.9478C9.29328 16.9478 6.73271 14.9485 6.10133 12.1424C6.00779 11.7448 6.26502 11.3356 6.66255 11.2538C7.07178 11.1602 7.46931 11.4175 7.55115 11.815C8.03053 13.978 10.0416 15.5097 12.3215 15.4512C14.543 15.3928 16.3319 13.9196 16.6593 11.8618C16.7295 11.4525 17.1036 11.1719 17.5128 11.2421C17.9221 11.3122 18.2027 11.6864 18.1325 12.0956C17.6882 14.8783 15.303 16.8777 12.3566 16.9478C12.3098 16.9478 12.2631 16.9478 12.2163 16.9478Z" fill="#2475EA"/>
<path d="M12.1228 19.8942C11.7136 19.8942 11.3745 19.5552 11.3745 19.1459V16.1878C11.3745 15.7786 11.7136 15.4395 12.1228 15.4395C12.532 15.4395 12.8711 15.7786 12.8711 16.1878V19.1459C12.8711 19.5669 12.532 19.8942 12.1228 19.8942Z" fill="#2475EA"/>
<path d="M19.9565 20.7244C19.6876 20.7244 19.4186 20.6191 19.2082 20.4204L3.30692 4.51911C2.89769 4.10989 2.89769 3.44344 3.30692 3.03421C3.71614 2.62499 4.38259 2.62499 4.79182 3.03421L20.6931 18.9355C21.1023 19.3447 21.1023 20.0112 20.6931 20.4204C20.4943 20.6191 20.2254 20.7244 19.9565 20.7244Z" fill="#FF3333"/>
</svg>
