<svg width="24" height="24" viewBox="0 0 24 24" fill="none" xmlns="http://www.w3.org/2000/svg">
<path d="M11.3597 3.54841L7.93281 7.07015C7.49407 7.52074 7.81423 8.26778 8.44269 8.26778L15.5692 8.26778C16.1976 8.26778 16.5059 7.52074 16.0791 7.07015L12.6522 3.54841C12.2846 3.18082 11.7154 3.18082 11.3597 3.54841Z" fill="#F958CF"/>
<path d="M13.7194 7.91207L13.7194 10.0939C13.7194 10.5919 13.3043 10.9832 12.7945 10.9832L11.1937 10.9832C10.6838 10.9832 10.2688 10.5801 10.2688 10.0939L10.2688 7.91207C10.2688 6.98717 11.0395 6.24013 11.9881 6.24013C12.9486 6.24013 13.7194 6.98717 13.7194 7.91207Z" fill="#F958CF"/>
<path d="M20.1818 14.8725C20.17 11.1611 18.2016 10.1176 15.7826 10.0346C15.6759 10.0346 8.63242 10.0346 8.5257 10.0346C8.05139 10.0346 7.6008 10.0702 7.17392 10.1413C5.44269 10.4615 4.07906 11.5049 3.85376 14.0899C3.83005 14.3508 3.81819 14.6235 3.81819 14.9081C3.81819 18.2994 5.95257 19.5208 8.5257 19.5208C8.63242 19.5208 15.6759 19.5208 15.7826 19.5089C18.2134 19.414 20.1818 18.1571 20.1818 14.9081C20.1818 14.8962 20.1818 14.8844 20.1818 14.8725Z" fill="#FFBC00"/>
<path d="M7.68381 13.2599C6.84556 13.2599 6.16602 13.9394 6.16602 14.7777C6.16602 15.6159 6.84556 16.2955 7.68381 16.2955C8.52206 16.2955 9.2016 15.6159 9.2016 14.7777C9.2016 13.9394 8.52206 13.2599 7.68381 13.2599Z" fill="#2475EA"/>
<path d="M12 13.2599C11.1617 13.2599 10.4822 13.9394 10.4822 14.7777C10.4822 15.6159 11.1617 16.2955 12 16.2955C12.8382 16.2955 13.5178 15.6159 13.5178 14.7777C13.5178 13.9394 12.8382 13.2599 12 13.2599Z" fill="#2475EA"/>
<path d="M16.3162 13.2599C15.4779 13.2599 14.7984 13.9394 14.7984 14.7777C14.7984 15.6159 15.4779 16.2955 16.3162 16.2955C17.1544 16.2955 17.834 15.6159 17.834 14.7777C17.834 13.9394 17.1544 13.2599 16.3162 13.2599Z" fill="#2475EA"/>
</svg>
