<svg width="24" height="24" viewBox="0 0 24 24" fill="none" xmlns="http://www.w3.org/2000/svg">
<path d="M12.6403 20.3398L16.0672 16.8181C16.5059 16.3675 16.1858 15.6205 15.5573 15.6205H8.43083C7.80237 15.6205 7.49407 16.3675 7.92095 16.8181L11.3478 20.3398C11.7154 20.7074 12.2846 20.7074 12.6403 20.3398Z" fill="#F958CF"/>
<path d="M10.2806 15.9762V13.7944C10.2806 13.2963 10.6957 12.905 11.2055 12.905H12.8063C13.3162 12.905 13.7312 13.3082 13.7312 13.7944V15.9762C13.7312 16.9011 12.9605 17.6481 12.0119 17.6481C11.0514 17.6481 10.2806 16.9011 10.2806 15.9762Z" fill="#F958CF"/>
<path d="M3.81818 9.01571C3.83003 12.7272 5.79841 13.7707 8.21739 13.8537C8.3241 13.8537 15.3676 13.8537 15.4743 13.8537C15.9486 13.8537 16.3992 13.8181 16.8261 13.7469C18.5573 13.4268 19.9209 12.3833 20.1462 9.79832C20.17 9.53745 20.1818 9.26473 20.1818 8.98014C20.1818 5.58884 18.0474 4.36749 15.4743 4.36749C15.3676 4.36749 8.3241 4.36749 8.21739 4.37935C5.78656 4.47421 3.81818 5.73113 3.81818 8.98014C3.81818 8.992 3.81818 9.00386 3.81818 9.01571Z" fill="#FFBC00"/>
<path d="M16.3162 10.6284C17.1544 10.6284 17.834 9.94883 17.834 9.11058C17.834 8.27232 17.1544 7.59279 16.3162 7.59279C15.4779 7.59279 14.7984 8.27232 14.7984 9.11058C14.7984 9.94883 15.4779 10.6284 16.3162 10.6284Z" fill="#2475EA"/>
<path d="M12 10.6284C12.8383 10.6284 13.5178 9.94883 13.5178 9.11058C13.5178 8.27232 12.8383 7.59279 12 7.59279C11.1618 7.59279 10.4822 8.27232 10.4822 9.11058C10.4822 9.94883 11.1618 10.6284 12 10.6284Z" fill="#2475EA"/>
<path d="M7.6838 10.6284C8.52205 10.6284 9.20159 9.94883 9.20159 9.11058C9.20159 8.27232 8.52205 7.59279 7.6838 7.59279C6.84555 7.59279 6.16602 8.27232 6.16602 9.11058C6.16602 9.94883 6.84555 10.6284 7.6838 10.6284Z" fill="#2475EA"/>
</svg>
