<svg width="24" height="24" viewBox="0 0 24 24" fill="none" xmlns="http://www.w3.org/2000/svg">
<path d="M16.94 11.75H12.8V6.75C12.8 6.53783 12.7157 6.33434 12.5657 6.18432C12.4157 6.03429 12.2122 5.95 12 5.95C11.7878 5.95 11.5844 6.03429 11.4343 6.18432C11.2843 6.33434 11.2 6.53783 11.2 6.75V11.75H7.05001C6.41961 11.7526 5.81577 12.0042 5.37001 12.45C4.92424 12.8958 4.67265 13.4996 4.67001 14.13V18.7C4.67001 18.9122 4.7543 19.1157 4.90433 19.2657C5.05436 19.4157 5.25784 19.5 5.47001 19.5C5.68219 19.5 5.88567 19.4157 6.0357 19.2657C6.18573 19.1157 6.27001 18.9122 6.27001 18.7V14.13C6.27001 13.9231 6.35219 13.7247 6.49847 13.5785C6.64475 13.4322 6.84314 13.35 7.05001 13.35H11.2V18.7C11.2 18.8051 11.2207 18.9091 11.2609 19.0061C11.3011 19.1032 11.36 19.1914 11.4343 19.2657C11.5086 19.34 11.5968 19.3989 11.6939 19.4391C11.7909 19.4793 11.895 19.5 12 19.5C12.1051 19.5 12.2091 19.4793 12.3062 19.4391C12.4032 19.3989 12.4914 19.34 12.5657 19.2657C12.64 19.1914 12.6989 19.1032 12.7391 19.0061C12.7793 18.9091 12.8 18.8051 12.8 18.7V13.35H16.94C17.0433 13.3487 17.1458 13.3679 17.2416 13.4065C17.3374 13.4451 17.4245 13.5023 17.498 13.5749C17.5715 13.6475 17.6299 13.7339 17.6697 13.8292C17.7095 13.9245 17.73 14.0267 17.73 14.13V18.7C17.73 18.9122 17.8143 19.1157 17.9643 19.2657C18.1144 19.4157 18.3178 19.5 18.53 19.5C18.7422 19.5 18.9457 19.4157 19.0957 19.2657C19.2457 19.1157 19.33 18.9122 19.33 18.7V14.13C19.3274 13.4979 19.0744 12.8925 18.6265 12.4465C18.1785 12.0004 17.5722 11.75 16.94 11.75Z" fill="#B6BDBF"/>
<path d="M12.77 3.79H11.24C9.90348 3.79 8.82001 4.87347 8.82001 6.21V7.74C8.82001 9.07653 9.90348 10.16 11.24 10.16H12.77C14.1065 10.16 15.19 9.07653 15.19 7.74V6.21C15.19 4.87347 14.1065 3.79 12.77 3.79Z" fill="#3984F7"/>
<path d="M12.61 15.06H11.38C10.2975 15.06 9.42001 15.9375 9.42001 17.02V18.25C9.42001 19.3325 10.2975 20.21 11.38 20.21H12.61C13.6925 20.21 14.57 19.3325 14.57 18.25V17.02C14.57 15.9375 13.6925 15.06 12.61 15.06Z" fill="#FF70C8"/>
<path d="M19.14 15.06H17.91C16.8275 15.06 15.95 15.9375 15.95 17.02V18.25C15.95 19.3325 16.8275 20.21 17.91 20.21H19.14C20.2225 20.21 21.1 19.3325 21.1 18.25V17.02C21.1 15.9375 20.2225 15.06 19.14 15.06Z" fill="#FFC720"/>
<path d="M6.08999 15.06H4.85999C3.77752 15.06 2.89999 15.9375 2.89999 17.02V18.25C2.89999 19.3325 3.77752 20.21 4.85999 20.21H6.08999C7.17247 20.21 8.04999 19.3325 8.04999 18.25V17.02C8.04999 15.9375 7.17247 15.06 6.08999 15.06Z" fill="#FFC720"/>
</svg>
