<svg width="24" height="24" viewBox="0 0 24 24" fill="none" xmlns="http://www.w3.org/2000/svg">
<path d="M9.90962 11.4468C6.75252 11.4468 5.24484 13.3797 4.56187 14.7714C4.14952 15.6219 4.39435 16.6528 5.16752 17.2069C6.22419 17.98 8.11845 18.895 11.1725 18.9723C14.4842 19.0625 17.564 17.877 17.564 17.877C17.564 17.877 15.6955 11.4339 9.90962 11.4468Z" fill="#2475EA"/>
<path d="M14.1492 8.17369C14.1363 4.68155 12.2678 3.81818 9.97406 3.81818C9.54882 3.81818 9.13646 3.84395 8.74988 3.92127C8.80142 4.35939 9.31687 7.22012 14.1492 8.17369Z" fill="#50595E"/>
<path d="M14.1492 8.17368C11.6106 7.67112 10.2704 6.65311 9.5617 5.72531C8.40195 7.11702 6.23707 7.43917 5.8376 7.47783C5.81183 7.70978 5.81183 7.95462 5.81183 8.21234C5.81183 11.7303 7.68032 12.6065 9.98694 12.6065C12.2936 12.6065 14.1621 11.7303 14.1621 8.21234C14.1492 8.19945 14.1492 8.18657 14.1492 8.17368Z" fill="#FFB000"/>
<path d="M9.56168 5.72533C8.91737 4.88773 8.78851 4.12744 8.76274 3.92126C7.20352 4.19187 6.03088 5.13256 5.83759 7.46496C6.23706 7.4263 8.38904 7.11703 9.56168 5.72533Z" fill="#50595E"/>
<path d="M15.8372 13.8049L15.3476 13.7921C13.3502 14.1658 12.2678 15.4415 11.9972 17.1811C11.8554 18.1218 12.6673 18.9465 13.6079 18.8305C14.7033 18.7017 15.644 18.4826 16.3656 18.2764C17.4738 17.9543 18.2598 17.5806 18.8011 17.2455C19.5098 16.8074 19.7031 15.8538 19.2134 15.1838C18.698 14.4492 17.7057 13.689 15.8372 13.8049Z" fill="#F251D0"/>
<path d="M18.2212 11.4339C18.2083 9.02417 16.9197 8.41852 15.3347 8.41852C15.0383 8.41852 14.7548 8.44429 14.4971 8.48295C14.5357 8.8051 14.8837 10.7767 18.2212 11.4339Z" fill="#2475EA"/>
<path d="M18.2212 11.4339C16.4687 11.086 15.5409 10.3772 15.0512 9.73291C14.2522 10.6994 12.7574 10.9184 12.474 10.9442C12.4611 11.0988 12.4482 11.2664 12.4482 11.4468C12.4482 13.8823 13.7368 14.475 15.3347 14.475C16.9326 14.475 18.2212 13.8694 18.2212 11.4468C18.2212 11.4468 18.2212 11.4468 18.2212 11.4339Z" fill="#FFB000"/>
<path d="M15.0512 9.73293C14.6002 9.15305 14.51 8.6376 14.4971 8.48297C13.4275 8.67626 12.6157 9.33346 12.4739 10.9442C12.7574 10.9185 14.2522 10.6994 15.0512 9.73293Z" fill="#2475EA"/>
</svg>
