<svg width="24" height="24" viewBox="0 0 24 24" fill="none" xmlns="http://www.w3.org/2000/svg">
<path d="M10.108 16.9489H7.9074C7.45931 16.9489 7.09088 16.5805 7.09088 16.1324V7.9074C7.09088 7.45931 7.45931 7.09088 7.9074 7.09088H10.108C10.5561 7.09088 10.9245 7.45931 10.9245 7.9074V16.1324C10.9196 16.5805 10.5561 16.9489 10.108 16.9489Z" fill="#FFB700"/>
<path d="M16.0926 16.9489H13.892C13.4439 16.9489 13.0754 16.5805 13.0754 16.1324V7.9074C13.0754 7.45931 13.4439 7.09088 13.892 7.09088H16.0926C16.5407 7.09088 16.9091 7.45931 16.9091 7.9074V16.1324C16.9091 16.5805 16.5407 16.9489 16.0926 16.9489Z" fill="#FC59D2"/>
</svg>
