<svg width="24" height="24" viewBox="0 0 24 24" fill="none" xmlns="http://www.w3.org/2000/svg">
<path d="M19.1608 9.93295L11.5739 17.5805C11.2705 17.884 10.9063 18.0661 10.5421 18.1875L5.14026 19.8869C4.47261 20.1297 3.86569 19.2254 4.10847 18.5577L5.80791 13.4533C5.9293 13.0891 6.17208 12.7249 6.41486 12.4214L14.0017 4.77386C15.0336 3.74205 16.6723 3.74205 17.7041 4.77386L19.1608 6.23055C20.1926 7.26236 20.1926 8.96183 19.1608 9.93295Z" fill="#FFC720"/>
<path d="M10.5421 18.1935C10.6635 18.1328 10.8456 18.0721 10.967 18.0114L5.98996 13.0344C5.92926 13.1558 5.86857 13.2772 5.80787 13.4593L4.65466 16.9189L6.5362 19.4681L10.5421 18.1935Z" fill="#FF70C8"/>
<path d="M7.14321 19.2861L4.7154 16.9797L4.71542 16.7369L4.41194 17.6473L4.04777 18.7702C3.80499 19.4378 4.53332 20.1965 5.20096 19.9537L7.14321 19.2861Z" fill="#6D7075"/>
<path d="M19.1608 6.23659L17.7042 4.77991C16.6723 3.74809 15.0336 3.74809 14.0018 4.77991L13.3341 5.44755L18.4932 10.6067L19.343 9.75693C20.4355 8.7858 20.1927 7.20771 19.1608 6.23659Z" fill="#3984F7"/>
</svg>
