<svg width="24" height="24" viewBox="0 0 24 24" fill="none" xmlns="http://www.w3.org/2000/svg">
<path d="M18.453 9.98194L10.1387 5.1841C8.48976 4.2305 6.42361 5.42251 6.42361 7.32972V16.8261C6.42361 18.7333 8.48976 19.9253 10.1387 18.9717L18.453 14.1738C20.0721 13.2401 20.0721 10.9157 18.453 9.98194Z" fill="#FFBC00"/>
<path d="M14.2015 13.707L15.5922 12.8924L16.4365 12.4057C16.7047 12.2567 16.7047 11.8693 16.4365 11.7203L9.58244 7.82641C9.31424 7.6774 8.98643 7.86614 8.98643 8.17408L8.99637 12.6838C8.99637 13.3792 8.45996 13.9752 7.76462 14.0149C7.01962 14.0547 6.41368 13.4586 6.41368 12.7236L6.40375 7.35954C6.40375 6.47546 6.85075 5.63112 7.60569 5.18412C8.3805 4.71725 9.32417 4.70732 10.1089 5.15432L18.4629 9.90249C19.2476 10.3495 19.7145 11.164 19.7145 12.058C19.7145 12.962 19.2476 13.7666 18.4629 14.2136L15.3339 16.0016C15.1551 16.1208 13.5757 14.0646 14.2015 13.707Z" fill="#2475EA"/>
<path d="M8.90697 19.379C8.31096 19.379 7.70502 19.1605 7.22822 18.7234C6.70175 18.2466 6.42361 17.5513 6.42361 16.8361V10.3197C6.42361 9.6244 6.96002 9.0284 7.65536 8.98866C8.40036 8.94893 9.0063 9.54493 9.0063 10.28V16.0116C9.0063 16.3195 9.34404 16.5083 9.61224 16.3493L12.1949 14.8196L13.5359 17.0149L10.1784 19.0313C9.78111 19.2697 9.34404 19.379 8.90697 19.379Z" fill="#F251D0"/>
<path d="M15.6418 15.8327L13.3174 17.1638C13.1187 17.273 12.9002 17.3326 12.6817 17.3326C12.2347 17.3326 11.8075 17.1042 11.5691 16.687C11.2115 16.0612 11.4599 15.2466 12.0857 14.889L12.7611 14.5016L15.5922 12.8825" fill="#2475EA"/>
</svg>
