<svg width="24" height="24" viewBox="0 0 24 24" fill="none" xmlns="http://www.w3.org/2000/svg">
<path d="M18.1538 10.18H12.112C11.8167 10.18 11.5243 10.2382 11.2515 10.3512C10.9787 10.4642 10.7309 10.6298 10.5221 10.8386C10.3133 11.0474 10.1477 11.2952 10.0347 11.568C9.92166 11.8408 9.8635 12.1332 9.8635 12.4285V18.7574C9.85129 19.3278 10.0514 19.8824 10.425 20.3136C10.7987 20.7447 11.3192 21.0217 11.8855 21.0908C12.1935 21.1189 12.5039 21.0825 12.797 20.9839C13.0901 20.8853 13.3594 20.7266 13.5877 20.5181C13.816 20.3096 13.9984 20.0557 14.1231 19.7727C14.2478 19.4898 14.3121 19.1839 14.3119 18.8747V15.8416C14.3119 15.5199 14.4398 15.2113 14.6673 14.9838C14.8948 14.7563 15.2034 14.6284 15.5251 14.6284H18.0324C18.6029 14.6407 19.1574 14.4405 19.5886 14.0669C20.0198 13.6933 20.2968 13.1728 20.3658 12.6064C20.3939 12.2988 20.3576 11.9887 20.2593 11.6959C20.1609 11.4031 20.0026 11.134 19.7945 10.9057C19.5864 10.6775 19.3331 10.4951 19.0506 10.3701C18.7681 10.2452 18.4627 10.1804 18.1538 10.18Z" fill="#FFC720"/>
<path d="M11.8855 3.7096C11.3219 3.77479 10.8028 4.0473 10.4291 4.47411C10.0553 4.90092 9.85372 5.45151 9.8635 6.01875V8.44516C9.86403 8.66889 9.82036 8.89052 9.73499 9.09733C9.64962 9.30413 9.52423 9.49203 9.36603 9.65023C9.20783 9.80843 9.01992 9.93381 8.81312 10.0192C8.60632 10.1046 8.3847 10.1482 8.16097 10.1477H6.11872C5.55149 10.1379 5.0009 10.3395 4.57409 10.7132C4.14728 11.087 3.87477 11.6061 3.80959 12.1697C3.78088 12.4774 3.81674 12.7878 3.91487 13.0809C4.013 13.374 4.17125 13.6433 4.37948 13.8717C4.5877 14.1001 4.84132 14.2825 5.12411 14.4073C5.40689 14.532 5.7126 14.5963 6.02167 14.5961H12.0877C12.6776 14.5961 13.2434 14.3618 13.6605 13.9447C14.0776 13.5275 14.3119 12.9618 14.3119 12.3719V5.90147C14.3093 5.5941 14.243 5.29062 14.117 5.01025C13.991 4.72987 13.8082 4.47871 13.5801 4.27266C13.352 4.06662 13.0836 3.91018 12.7919 3.81326C12.5002 3.71634 12.1916 3.68104 11.8855 3.7096Z" fill="#3984F7"/>
<path d="M9.86346 12.4285V14.6284H12.0877C12.6776 14.6284 13.2433 14.3941 13.6604 13.977C14.0776 13.5599 14.3119 12.9941 14.3119 12.4042V10.18H12.1119C11.8167 10.18 11.5243 10.2382 11.2515 10.3512C10.9787 10.4642 10.7308 10.6298 10.522 10.8386C10.3132 11.0474 10.1476 11.2952 10.0346 11.568C9.92162 11.8408 9.86346 12.1332 9.86346 12.4285Z" fill="#FF70C8"/>
</svg>
