<svg width="24" height="24" viewBox="0 0 24 24" fill="none" xmlns="http://www.w3.org/2000/svg">
<path d="M5.10999 5.65H18.89C19.4204 5.65 19.9291 5.86072 20.3042 6.23579C20.6793 6.61086 20.89 7.11957 20.89 7.65V16.35C20.89 16.8804 20.6793 17.3891 20.3042 17.7642C19.9291 18.1393 19.4204 18.35 18.89 18.35H7.10999C6.04912 18.35 5.0317 17.9286 4.28156 17.1784C3.53141 16.4283 3.10999 15.4109 3.10999 14.35V7.65C3.10999 7.11957 3.3207 6.61086 3.69577 6.23579C4.07084 5.86072 4.57955 5.65 5.10999 5.65Z" fill="#FFC720"/>
<path d="M20.89 8.25999V7.65001C20.89 7.11958 20.6793 6.61087 20.3042 6.23579C19.9291 5.86072 19.4204 5.65001 18.89 5.65001H5.12C4.58956 5.65001 4.08085 5.86072 3.70578 6.23579C3.33071 6.61087 3.12 7.11958 3.12 7.65001V8.25999H20.89Z" fill="#3984F7"/>
<path d="M15.8 13.91C15.9159 13.805 16.0085 13.6769 16.0719 13.5339C16.1353 13.391 16.168 13.2364 16.168 13.08C16.168 12.9236 16.1353 12.769 16.0719 12.626C16.0085 12.4831 15.9159 12.355 15.8 12.25L13.13 9.82999C13.0367 9.76224 12.9266 9.72141 12.8116 9.71195C12.6967 9.70249 12.5814 9.72476 12.4782 9.77634C12.3751 9.82791 12.288 9.90683 12.2266 10.0045C12.1652 10.1021 12.1318 10.2147 12.13 10.33V11.6C12.13 11.7034 12.0889 11.8026 12.0158 11.8758C11.9427 11.9489 11.8435 11.99 11.74 11.99H8.94003C8.79605 11.9887 8.65323 12.0159 8.51983 12.0701C8.38643 12.1243 8.26508 12.2043 8.16281 12.3057C8.06053 12.407 7.97935 12.5276 7.92394 12.6605C7.86854 12.7934 7.84002 12.936 7.84003 13.08C7.84003 13.3717 7.95592 13.6515 8.16221 13.8578C8.3685 14.0641 8.64829 14.18 8.94003 14.18H11.73C11.7808 14.1787 11.8313 14.1875 11.8785 14.206C11.9258 14.2245 11.9689 14.2523 12.0052 14.2877C12.0416 14.3231 12.0705 14.3655 12.0902 14.4122C12.1099 14.459 12.12 14.5092 12.12 14.56V15.83C12.12 15.9462 12.1521 16.0601 12.2128 16.1591C12.2734 16.2582 12.3603 16.3385 12.4638 16.3913C12.5673 16.4441 12.6833 16.4672 12.7992 16.4582C12.915 16.4491 13.026 16.4082 13.12 16.34L15.8 13.91Z" fill="#FF70C8"/>
</svg>
