<svg width="24" height="24" viewBox="0 0 24 24" fill="none" xmlns="http://www.w3.org/2000/svg">
<path d="M17.882 9.18661C17.8631 4.28011 15.2398 3.05505 12 3.05505C11.4024 3.05505 10.8299 3.09903 10.2826 3.19327C10.3581 3.82778 11.0752 7.82963 17.882 9.18661Z" fill="#2475EA"/>
<path d="M17.8819 9.18661C14.3087 8.4767 12.4152 7.03177 11.4087 5.73132C9.76674 7.69141 6.73455 8.13118 6.16208 8.20028C6.13691 8.52696 6.11804 8.87249 6.11804 9.23687C6.11804 13.5842 8.75391 14.9664 12 14.9664C15.2461 14.9664 17.8819 13.6282 17.8819 9.23687C17.8819 9.21802 17.8819 9.19917 17.8819 9.18661Z" fill="#FFBC00"/>
<path d="M11.4086 5.73133C10.4965 4.55653 10.3203 3.48853 10.2826 3.18698C8.09334 3.58905 6.43885 4.92091 6.16205 8.20028C6.73452 8.13118 9.76671 7.6977 11.4086 5.73133Z" fill="#2475EA"/>
<path d="M10.5899 10.944C10.8135 10.7207 10.8174 10.3627 10.5988 10.1444C10.3801 9.92602 10.0217 9.92999 9.7981 10.1533C9.57454 10.3765 9.57056 10.7345 9.78921 10.9529C10.0079 11.1712 10.3663 11.1672 10.5899 10.944Z" fill="#50595E"/>
<path d="M14.2014 10.9454C14.425 10.7221 14.4289 10.3641 14.2103 10.1458C13.9917 9.92742 13.6332 9.9314 13.4096 10.1547C13.1861 10.3779 13.1821 10.7359 13.4007 10.9543C13.6194 11.1726 13.9778 11.1686 14.2014 10.9454Z" fill="#50595E"/>
<path d="M13.5979 15.9778C13.3148 15.8647 12.5284 15.6134 12.5284 15.6134L12.7926 12.6356C12.7926 12.6356 12.8115 11.9131 12.2453 11.9131C11.6792 11.9131 11.654 12.6105 11.654 12.6105L11.2073 15.6825C11.2073 15.6825 10.9683 15.7956 10.9054 16.1789C10.8991 16.204 10.4021 19.6279 10.2952 20.5639C10.8488 20.6644 11.4149 20.7084 12 20.7084C12.1069 20.7084 12.2705 20.7335 12.2957 20.7335C12.2957 20.7335 12.4089 20.2687 13.1575 20.3063C13.73 20.3378 14.0445 20.1242 14.1892 19.4896C14.2332 19.2949 14.5541 17.5484 14.5541 17.5484C14.7239 16.5495 14.2773 16.2542 13.5979 15.9778Z" fill="#F958CF"/>
</svg>
