<svg width="24" height="24" viewBox="0 0 24 24" fill="none" xmlns="http://www.w3.org/2000/svg">
<path d="M16.9798 10.3593C16.4511 10.3593 15.9464 10.0829 15.6581 9.60233C14.8651 8.25662 13.3992 7.41554 11.8492 7.41554C11.1043 7.41554 10.4074 7.59577 9.75855 7.94422C9.75855 7.94422 9.59033 8.04034 9.33801 8.22057C8.64112 8.7132 7.69191 8.54498 7.19928 7.86011C6.70665 7.16322 6.87487 6.21401 7.55974 5.72138C7.96826 5.43301 8.25663 5.27681 8.30469 5.25278C9.38607 4.67605 10.6116 4.36365 11.8492 4.36365C14.4926 4.36365 16.9677 5.78146 18.3015 8.05236C18.734 8.78529 18.4817 9.72249 17.7608 10.155C17.5084 10.2872 17.2441 10.3593 16.9798 10.3593Z" fill="#FFB000"/>
<path d="M8.2446 18.1092C7.9322 18.1092 7.6198 18.0131 7.35547 17.8208C6.98299 17.5565 6.43029 16.9918 6.21401 16.7635C6.18998 16.7394 6.17796 16.7274 6.16595 16.7034C5.68533 16.1507 5.30084 15.5259 5.00046 14.865C4.57992 13.9158 4.36365 12.8945 4.36365 11.8372C4.36365 9.56629 5.37294 7.45159 7.13919 6.02176C7.19927 5.9737 7.25934 5.92564 7.31942 5.87758C7.99228 5.36092 8.95351 5.49309 9.47017 6.16595C9.98683 6.83881 9.85466 7.80003 9.1818 8.31669C9.14575 8.34072 9.10971 8.37677 9.07366 8.4008C8.02833 9.24187 7.43957 10.4915 7.43957 11.8372C7.43957 12.462 7.55973 13.0627 7.81205 13.6155C7.98026 13.9999 8.19654 14.3484 8.47289 14.6728C8.73723 14.9492 9.04963 15.2495 9.14575 15.3216C9.83063 15.8143 9.98683 16.7755 9.4942 17.4604C9.19381 17.8809 8.72522 18.1092 8.2446 18.1092Z" fill="#F958CF"/>
<path d="M11.8492 19.3227C10.0589 19.3227 8.31667 18.6739 6.95893 17.5084C6.32212 16.9557 6.25003 15.9825 6.80273 15.3456C7.35544 14.7088 8.32868 14.6367 8.9655 15.1894C9.77052 15.8743 10.7918 16.2588 11.8492 16.2588C13.6274 16.2588 15.2255 15.2015 15.9224 13.5554C16.2468 12.7744 17.1479 12.4139 17.9289 12.7383C18.7099 13.0627 19.0704 13.9639 18.746 14.7449C17.5685 17.5324 14.853 19.3227 11.8492 19.3227Z" fill="#2475EA"/>
<path d="M18.6859 9.12172L18.6379 6.51439C18.6258 5.69735 17.6406 5.30084 17.0639 5.87758L14.1561 8.78529C13.5794 9.36202 13.9759 10.3353 14.793 10.3593L17.4003 10.4074C18.1092 10.4074 18.6979 9.83062 18.6859 9.12172Z" fill="#FFB000"/>
</svg>
