<svg width="24" height="24" viewBox="0 0 24 24" fill="none" xmlns="http://www.w3.org/2000/svg">
<path d="M4.37 17.06L4.37 6.14C4.37 5.60957 4.58072 5.10086 4.9558 4.72579C5.33087 4.35071 5.83956 4.14 6.37 4.14H17.62C18.1504 4.14 18.6591 4.35071 19.0342 4.72579C19.4093 5.10086 19.62 5.60957 19.62 6.14V19.06C19.62 19.5904 19.4093 20.0991 19.0342 20.4742C18.6591 20.8493 18.1504 21.06 17.62 21.06H8.37C7.30913 21.06 6.29173 20.6386 5.54158 19.8884C4.79143 19.1383 4.37 18.1209 4.37 17.06Z" fill="#FFC720"/>
<path d="M13.42 5.72C14.1877 5.72 14.81 5.09992 14.81 4.335C14.81 3.57009 14.1877 2.95 13.42 2.95L10.58 2.95C9.81231 2.95 9.18999 3.57009 9.18999 4.335C9.18999 5.09992 9.81231 5.72 10.58 5.72H13.42Z" fill="#3984F7"/>
<path d="M16.07 15.18C15.6931 14.4568 15.1251 13.8508 14.4277 13.4279C13.7304 13.0051 12.9305 12.7815 12.115 12.7815C11.2995 12.7815 10.4996 13.0051 9.80227 13.4279C9.10496 13.8508 8.53695 14.4568 8.16001 15.18C7.77001 15.95 8.08001 16.77 8.93001 16.77H15.31C16.14 16.77 16.45 15.95 16.07 15.18Z" fill="#FF70C8"/>
<path d="M12.09 13.18C13.421 13.18 14.5 12.101 14.5 10.77C14.5 9.439 13.421 8.36 12.09 8.36C10.759 8.36 9.67999 9.439 9.67999 10.77C9.67999 12.101 10.759 13.18 12.09 13.18Z" fill="#FF70C8"/>
</svg>
