<svg width="24" height="24" viewBox="0 0 24 24" fill="none" xmlns="http://www.w3.org/2000/svg">
<path d="M18.95 6.78H5.06999C4.58464 6.78 4.11918 6.9728 3.77598 7.31599C3.43279 7.65919 3.23999 8.12466 3.23999 8.61V15.09C3.23999 15.7238 3.36499 16.3514 3.60785 16.9368C3.8507 17.5223 4.20663 18.0541 4.65527 18.5018C5.10391 18.9495 5.63644 19.3043 6.22239 19.546C6.80833 19.7876 7.43618 19.9113 8.06999 19.91H18.95C19.1912 19.9113 19.4302 19.865 19.6534 19.7736C19.8766 19.6822 20.0795 19.5476 20.2505 19.3775C20.4215 19.2075 20.5571 19.0053 20.6497 18.7826C20.7423 18.5599 20.79 18.3212 20.79 18.08V8.61C20.79 8.36884 20.7423 8.13004 20.6497 7.90736C20.5571 7.68468 20.4215 7.4825 20.2505 7.31244C20.0795 7.14238 19.8766 7.00779 19.6534 6.91641C19.4302 6.82504 19.1912 6.77868 18.95 6.78Z" fill="#FFC720"/>
<path d="M20.79 10.75V8.61C20.79 8.36884 20.7423 8.13004 20.6497 7.90736C20.5571 7.68468 20.4215 7.4825 20.2505 7.31244C20.0795 7.14238 19.8766 7.00779 19.6534 6.91641C19.4302 6.82504 19.1912 6.77868 18.95 6.78H5.06999C4.58464 6.78 4.11918 6.9728 3.77598 7.31599C3.43279 7.65919 3.23999 8.12466 3.23999 8.61V10.75H20.79Z" fill="#3984F7"/>
<path d="M9.05 5.61122C9.05 4.99751 8.50827 4.5 7.84 4.5C7.17174 4.5 6.63 4.99751 6.63 5.61122V7.88878C6.63 8.50249 7.17174 9 7.84 9C8.50827 9 9.05 8.50249 9.05 7.88878V5.61122Z" fill="#FF70C8"/>
<path d="M17.66 5.61122C17.66 4.99751 17.1183 4.5 16.45 4.5C15.7817 4.5 15.24 4.99751 15.24 5.61122V7.88878C15.24 8.50249 15.7817 9 16.45 9C17.1183 9 17.66 8.50249 17.66 7.88878V5.61122Z" fill="#FF70C8"/>
</svg>
