<svg width="24" height="24" viewBox="0 0 24 24" fill="none" xmlns="http://www.w3.org/2000/svg">
<path d="M15 3.67H12.46V3.42C12.4575 3.28819 12.404 3.1625 12.3107 3.06928C12.2175 2.97606 12.0918 2.92256 11.96 2.92C11.8274 2.92 11.7002 2.97268 11.6065 3.06644C11.5127 3.16021 11.46 3.28739 11.46 3.42V7.56C11.46 7.69261 11.5127 7.81978 11.6065 7.91355C11.7002 8.00732 11.8274 8.06 11.96 8.06C12.0918 8.05744 12.2175 8.00394 12.3107 7.91072C12.404 7.8175 12.4575 7.6918 12.46 7.56V6.3H14C14.1992 6.3 14.3963 6.26062 14.5802 6.18411C14.764 6.1076 14.931 5.99548 15.0713 5.8542C15.2117 5.71292 15.3227 5.54528 15.398 5.36092C15.4733 5.17656 15.5113 4.97913 15.51 4.78V4.19C15.51 4.0538 15.4566 3.92303 15.3613 3.82579C15.2659 3.72856 15.1362 3.67262 15 3.67Z" fill="#FF70C8"/>
<path d="M19.72 11.44H18L12.74 7.51C12.5115 7.31878 12.223 7.214 11.925 7.214C11.627 7.214 11.3385 7.31878 11.11 7.51L5.99999 11.72H4.19999C3.9109 11.72 3.63365 11.8348 3.42924 12.0393C3.22482 12.2437 3.10999 12.5209 3.10999 12.81V16.91C3.10999 17.8648 3.48927 18.7805 4.1644 19.4556C4.83953 20.1307 5.75521 20.51 6.70999 20.51H9.70999C9.87177 20.51 10.0269 20.4457 10.1413 20.3313C10.2557 20.2169 10.32 20.0618 10.32 19.9V16.9C10.32 16.5764 10.4485 16.2661 10.6773 16.0373C10.9061 15.8085 11.2164 15.68 11.54 15.68H12.38C12.7036 15.68 13.0139 15.8085 13.2427 16.0373C13.4714 16.2661 13.6 16.5764 13.6 16.9V19.9C13.6 20.0618 13.6643 20.2169 13.7787 20.3313C13.893 20.4457 14.0482 20.51 14.21 20.51H19.8C19.944 20.51 20.0865 20.4815 20.2194 20.4261C20.3523 20.3707 20.4729 20.2895 20.5743 20.1872C20.6756 20.0849 20.7557 19.9636 20.8099 19.8302C20.8641 19.6968 20.8913 19.554 20.89 19.41V12.61C20.89 12.2997 20.7667 12.0021 20.5473 11.7827C20.3279 11.5633 20.0303 11.44 19.72 11.44Z" fill="#FFC720"/>
<path d="M12.8631 13.2726C13.3474 12.7883 13.3537 12.0095 12.8773 11.5331C12.4008 11.0567 11.622 11.063 11.1378 11.5472C10.6535 12.0315 10.6472 12.8103 11.1237 13.2867C11.6001 13.7632 12.3789 13.7568 12.8631 13.2726Z" fill="#3984F7"/>
<path d="M7.09997 13.17L11.22 9.67C11.4192 9.49958 11.6728 9.40593 11.935 9.40593C12.1972 9.40593 12.4507 9.49958 12.65 9.67L16.91 13.2C17.2659 13.4902 17.7108 13.6491 18.17 13.65H20.89V12.35C20.89 12.0397 20.7667 11.7421 20.5473 11.5227C20.3279 11.3033 20.0303 11.18 19.72 11.18H18.27C18.0949 11.1819 17.9248 11.1217 17.79 11.01L12.79 6.83C12.5651 6.63536 12.2774 6.52879 11.98 6.53C11.6777 6.52817 11.3855 6.63864 11.16 6.84L6.19997 11C6.06849 11.1185 5.89697 11.1829 5.71997 11.18H4.19997C4.05598 11.18 3.91342 11.2085 3.78052 11.2639C3.64762 11.3193 3.52701 11.4005 3.42567 11.5028C3.32432 11.6051 3.24424 11.7264 3.19005 11.8598C3.13587 11.9932 3.10865 12.136 3.10997 12.28V13.64H5.81997C6.28852 13.6381 6.74153 13.4718 7.09997 13.17Z" fill="#3984F7"/>
</svg>
