<svg width="24" height="24" viewBox="0 0 24 24" fill="none" xmlns="http://www.w3.org/2000/svg">
<path d="M13.6353 3.18052L14.4238 5.66271C14.5553 6.05667 14.8248 6.38985 15.1825 6.60091C15.5402 6.81196 15.9622 6.88669 16.3706 6.81134L18.9112 6.25649C19.2675 6.17643 19.6401 6.21231 19.9746 6.35892C20.309 6.50552 20.5879 6.75517 20.7705 7.07144C20.9531 7.38772 21.0298 7.75406 20.9895 8.11702C20.9492 8.47999 20.794 8.82058 20.5465 9.08911L18.7944 11.0359C18.5085 11.354 18.3503 11.7666 18.3503 12.1943C18.3503 12.622 18.5085 13.0346 18.7944 13.3526L20.5465 15.2995C20.794 15.568 20.9492 15.9086 20.9895 16.2715C21.0298 16.6345 20.9531 17.0008 20.7705 17.3171C20.5879 17.6334 20.309 17.883 19.9746 18.0296C19.6401 18.1762 19.2675 18.2121 18.9112 18.1321L16.3706 17.5772C15.9622 17.5019 15.5402 17.5766 15.1825 17.7877C14.8248 17.9987 14.5553 18.3319 14.4238 18.7258L13.6353 21.208C13.5213 21.5517 13.302 21.8507 13.0085 22.0626C12.7149 22.2745 12.3621 22.3886 12 22.3886C11.6379 22.3886 11.2851 22.2745 10.9915 22.0626C10.698 21.8507 10.4787 21.5517 10.3647 21.208L9.57622 18.7258C9.44466 18.3319 9.17522 17.9987 8.8175 17.7877C8.45977 17.5766 8.03785 17.5019 7.6294 17.5772L5.08881 18.1321C4.7325 18.2121 4.35992 18.1762 4.02545 18.0296C3.69097 17.883 3.4121 17.6334 3.22951 17.3171C3.04692 17.0008 2.97017 16.6345 3.01046 16.2715C3.05075 15.9086 3.20597 15.568 3.45348 15.2995L5.20561 13.3526C5.49155 13.0346 5.64974 12.622 5.64974 12.1943C5.64974 11.7666 5.49155 11.354 5.20561 11.0359L3.45348 9.08911C3.21307 8.82312 3.06217 8.4884 3.02204 8.13212C2.98191 7.77583 3.05457 7.41594 3.22978 7.10313C3.405 6.79032 3.67394 6.54037 3.99871 6.38848C4.32349 6.23659 4.68774 6.19043 5.04013 6.25649L7.58073 6.81134C7.99645 6.89971 8.43016 6.83131 8.79851 6.61929C9.16685 6.40727 9.44384 6.06658 9.57622 5.66271L10.3647 3.18052C10.4787 2.83688 10.698 2.53788 10.9915 2.32597C11.2851 2.11405 11.6379 2 12 2C12.3621 2 12.7149 2.11405 13.0085 2.32597C13.302 2.53788 13.5213 2.83688 13.6353 3.18052Z" fill="#FFC720"/>
<path d="M12 15.0853C11.4224 15.0853 10.8578 14.914 10.3776 14.5932C9.89738 14.2723 9.52309 13.8162 9.30206 13.2826C9.08104 12.749 9.02321 12.1618 9.13589 11.5954C9.24856 11.0289 9.52669 10.5086 9.93509 10.1002C10.3435 9.69177 10.8638 9.41365 11.4303 9.30097C11.9968 9.18829 12.5839 9.24612 13.1175 9.46715C13.6511 9.68817 14.1072 10.0625 14.4281 10.5427C14.749 11.0229 14.9202 11.5875 14.9202 12.1651C14.9202 12.9396 14.6126 13.6823 14.0649 14.23C13.5173 14.7776 12.7745 15.0853 12 15.0853Z" fill="#FF70C8"/>
<path d="M12 10.0625C12.4159 10.0625 12.8224 10.1858 13.1681 10.4169C13.5139 10.6479 13.7834 10.9763 13.9425 11.3605C14.1017 11.7447 14.1433 12.1674 14.0622 12.5753C13.981 12.9831 13.7808 13.3578 13.4867 13.6518C13.1927 13.9459 12.8181 14.1461 12.4102 14.2273C12.0023 14.3084 11.5796 14.2667 11.1954 14.1076C10.8112 13.9485 10.4828 13.679 10.2518 13.3332C10.0208 12.9874 9.89745 12.5809 9.89745 12.1651C9.89745 11.6075 10.119 11.0727 10.5133 10.6784C10.9076 10.284 11.4424 10.0625 12 10.0625ZM12 8.47588C11.2704 8.47588 10.5571 8.69224 9.95039 9.09762C9.3437 9.503 8.87085 10.0792 8.59162 10.7533C8.31239 11.4274 8.23933 12.1692 8.38168 12.8848C8.52403 13.6005 8.87539 14.2578 9.39134 14.7738C9.90729 15.2897 10.5646 15.6411 11.2803 15.7834C11.9959 15.9258 12.7377 15.8527 13.4118 15.5735C14.0859 15.2943 14.6621 14.8214 15.0675 14.2147C15.4729 13.608 15.6892 12.8947 15.6892 12.1651C15.6892 11.1867 15.3005 10.2483 14.6087 9.55642C13.9168 8.86456 12.9784 8.47588 12 8.47588Z" fill="#2C7DF7"/>
</svg>
