<svg width="24" height="24" viewBox="0 0 24 24" fill="none" xmlns="http://www.w3.org/2000/svg">
<path d="M16.3115 14.775C16.3115 14.775 15.479 15.1688 15.0965 14.4375C14.7252 13.7063 15.434 13.2 15.434 13.2C15.434 13.2 15.4565 13.1888 15.434 13.2C15.4565 13.1888 15.839 12.9075 15.839 11.94C15.839 10.9725 15.4115 10.6688 15.4002 10.6575C15.4227 10.6688 15.434 10.68 15.434 10.68C15.434 10.68 14.6465 10.1175 15.0965 9.43126C15.5465 8.74501 16.3115 9.11626 16.3115 9.11626C16.4465 9.19501 17.639 9.91501 17.639 11.9513C17.639 13.9875 16.4465 14.6963 16.3115 14.775Z" fill="#F251D0"/>
<path d="M18.3252 16.8225C18.3252 16.8225 17.6502 17.2725 17.1215 16.5863C16.5815 15.8888 17.3465 15.315 17.3465 15.315L17.3352 15.3263C17.3915 15.2925 18.6402 14.3813 18.6402 11.9513C18.6402 9.48754 17.3577 8.58754 17.3465 8.57629C16.9302 8.30629 16.8177 7.74379 17.0877 7.32754C17.3577 6.91129 17.9202 6.79879 18.3365 7.06879C18.4265 7.12504 20.4402 8.48629 20.4402 11.9513C20.4402 13.7288 19.9002 14.9325 19.4502 15.6413C18.944 16.395 18.4265 16.755 18.3252 16.8225Z" fill="#F251D0"/>
<path d="M11.0127 17.43L7.379 15.045V8.84624L11.0127 6.44999C12.2615 5.70749 13.8365 6.61874 13.8365 8.06999V15.81C13.8365 17.2612 12.2615 18.1612 11.0127 17.43Z" fill="#FFB700"/>
<path d="M6.074 8.84625C3.8915 8.84625 3.38525 10.32 3.38525 11.9288C3.38525 13.5488 3.79025 15.0225 6.074 15.0225H7.379V8.84625H6.074Z" fill="#2475EA"/>
</svg>
