<svg width="24" height="24" viewBox="0 0 24 24" fill="none" xmlns="http://www.w3.org/2000/svg">
<path d="M19.1 7.73999C19.1 7.67999 19.1 7.62 19.1 7.62C18.98 7.2 18.74 6.78 18.44 6.42C18.14 6.12 17.72 5.88 17.24 5.76H17.18C15.98 5.52 14.18 5.39999 12.2 5.39999C10.22 5.39999 8.42001 5.52 7.22001 5.76H7.15999C6.67999 5.88 6.31999 6.06 5.95999 6.42C5.65999 6.72 5.42 7.14 5.3 7.62C5.3 7.68 5.3 7.73999 5.3 7.73999C5.12 8.75999 5 9.77999 5 10.8C5 11.82 5.06 12.78 5.3 13.8C5.3 13.86 5.3 13.92 5.3 13.92C5.42 14.34 5.65999 14.76 5.95999 15.12C6.25999 15.42 6.67999 15.66 7.15999 15.78H7.22001C7.58001 15.84 8.00001 15.9 8.42001 15.96C8.60001 15.96 8.72001 16.08 8.84001 16.2C8.96001 16.32 9.02001 16.5 9.02001 16.62V17.94C9.02001 18 9.01999 18.06 9.07999 18.12C9.07999 18.18 9.14 18.24 9.2 18.3C9.26 18.36 9.31999 18.42 9.37999 18.42C9.43999 18.42 9.49999 18.48 9.55999 18.48C9.61999 18.48 9.68001 18.48 9.74002 18.42C9.80001 18.42 9.86001 18.36 9.92001 18.3L12.14 16.5C12.38 16.26 12.74 16.14 13.04 16.14C14.42 16.14 15.74 16.02 17.12 15.78H17.18C17.66 15.66 18.02 15.48 18.38 15.12C18.68 14.82 18.92 14.4 19.04 13.92C19.04 13.86 19.04 13.8 19.04 13.8C19.22 12.84 19.34 11.82 19.34 10.8C19.4 9.77999 19.34 8.69999 19.1 7.73999Z" fill="#FFBC00"/>
<path d="M8.95999 9.84001C8.71999 9.78001 8.48002 9.78001 8.24002 9.90001C8.00002 10.02 7.82 10.2 7.7 10.38C7.58 10.62 7.51999 10.86 7.57999 11.1C7.63999 11.34 7.76002 11.58 7.94002 11.76C8.12002 11.94 8.36 12.06 8.6 12.12C8.84 12.18 9.14001 12.12 9.32001 12C9.56001 11.88 9.74 11.7 9.8 11.46C9.92 11.22 9.91999 10.98 9.85999 10.74C9.79999 10.56 9.67999 10.32 9.55999 10.2C9.31999 9.96001 9.13999 9.90001 8.95999 9.84001Z" fill="#3984F7"/>
<path d="M12.5 9.84001C12.26 9.78001 12.02 9.78001 11.78 9.90001C11.54 10.02 11.36 10.2 11.24 10.38C11.12 10.62 11.06 10.86 11.12 11.1C11.18 11.34 11.24 11.58 11.42 11.76C11.6 11.94 11.84 12.06 12.08 12.12C12.32 12.18 12.62 12.12 12.8 12C13.04 11.88 13.22 11.7 13.28 11.46C13.4 11.22 13.4 10.98 13.34 10.74C13.28 10.56 13.16 10.32 13.04 10.2C12.86 9.96001 12.68 9.90001 12.5 9.84001Z" fill="#3984F7"/>
<path d="M15.98 9.83998C15.8 9.77998 15.56 9.77998 15.38 9.83998C15.2 9.89998 15.02 10.02 14.84 10.14C14.72 10.26 14.6 10.44 14.54 10.68C14.48 10.86 14.48 11.1 14.54 11.28C14.6 11.46 14.72 11.64 14.84 11.82C14.96 11.94 15.2 12.06 15.38 12.12C15.56 12.18 15.8 12.18 15.98 12.12C16.16 12.06 16.34 11.94 16.52 11.82C16.64 11.7 16.76 11.52 16.82 11.28C16.88 11.04 16.88 10.86 16.82 10.68C16.76 10.5 16.64 10.32 16.52 10.14C16.4 9.95998 16.22 9.89998 15.98 9.83998Z" fill="#3984F7"/>
</svg>
