<svg width="24" height="24" viewBox="0 0 24 24" fill="none" xmlns="http://www.w3.org/2000/svg">
<path d="M7.80999 5.02001H4.56999C4.10056 5.02001 3.65035 5.2065 3.31841 5.53844C2.98647 5.87038 2.79999 6.32059 2.79999 6.79003V15.79C2.80263 16.2179 2.97447 16.6274 3.278 16.9291C3.58152 17.2307 3.99206 17.4 4.41999 17.4H7.80999C9.26999 17.4 10.81 17.33 11.67 18.26C11.736 18.3288 11.8217 18.3753 11.9154 18.3933C12.009 18.4112 12.1059 18.3996 12.1926 18.3601C12.2794 18.3205 12.3517 18.255 12.3996 18.1726C12.4475 18.0902 12.4686 17.9949 12.46 17.9V9.7C12.4653 9.08647 12.3488 8.47798 12.1174 7.90975C11.886 7.34152 11.5441 6.82485 11.1117 6.38961C10.6792 5.95436 10.1647 5.60919 9.59801 5.3741C9.03127 5.13902 8.42354 5.01866 7.80999 5.02001Z" fill="#FFC720"/>
<path d="M16.2 5.02H19.44C19.672 5.01999 19.9016 5.06584 20.1158 5.15491C20.33 5.24399 20.5245 5.37452 20.6881 5.53901C20.8516 5.7035 20.981 5.89872 21.0689 6.11341C21.1568 6.3281 21.2013 6.55805 21.2 6.79002V15.79C21.2 16.217 21.0304 16.6265 20.7284 16.9284C20.4265 17.2304 20.017 17.4 19.59 17.4H16.2C15.1783 17.39 14.1707 17.6376 13.27 18.12C12.9627 18.3607 12.5801 18.4848 12.19 18.47C11.9 18.47 11.55 18.29 11.55 17.95V9.69999C11.546 9.08682 11.6634 8.47895 11.8953 7.91132C12.1272 7.34369 12.4691 6.82753 12.9013 6.39256C13.3335 5.95758 13.8474 5.61237 14.4136 5.37681C14.9797 5.14125 15.5868 5.01998 16.2 5.02Z" fill="#3984F7"/>
</svg>
