<svg width="24" height="24" viewBox="0 0 24 24" fill="none" xmlns="http://www.w3.org/2000/svg">
<path d="M17.7514 16.2335C16.2097 13.2425 13.4653 12.7491 12.016 12.7491C10.5667 12.7491 7.81465 13.2502 6.28057 16.2335C5.71011 17.3436 6.16494 18.5385 7.39836 18.5385H16.6414C17.8748 18.5385 18.3296 17.3436 17.7514 16.2335Z" fill="#6892C2"/>
<path d="M16.279 9.29549C16.2636 5.78793 14.3904 4.90912 12.0854 4.90912C11.6614 4.90912 11.2451 4.93995 10.8597 5.00933C10.9059 5.46416 11.4224 8.33188 16.279 9.29549Z" fill="#6892C2"/>
<path d="M16.279 9.2955C13.7274 8.78671 12.3783 7.76142 11.6614 6.82864C10.4896 8.23167 8.32344 8.54773 7.91487 8.59399C7.89174 8.82525 7.88403 9.07194 7.88403 9.33404C7.88403 12.8724 9.76501 13.7512 12.0854 13.7512C14.4058 13.7512 16.2867 12.8724 16.2867 9.33404C16.279 9.31862 16.279 9.31091 16.279 9.2955Z" fill="#A2C5E8"/>
<path d="M11.6614 6.82864C11.0138 5.98837 10.8828 5.22519 10.8597 5.00934C9.29475 5.29457 8.11529 6.24276 7.91486 8.58627C8.32343 8.54773 10.4896 8.23166 11.6614 6.82864Z" fill="#6892C2"/>
<path d="M11.0756 10.5596C11.2352 10.4001 11.2376 10.1438 11.0811 9.98726C10.9245 9.83072 10.6683 9.83316 10.5087 9.99271C10.3492 10.1523 10.3467 10.4085 10.5033 10.5651C10.6598 10.7216 10.9161 10.7192 11.0756 10.5596Z" fill="#6087B3"/>
<path d="M13.6569 10.5568C13.8165 10.3973 13.8189 10.141 13.6624 9.98446C13.5058 9.82791 13.2496 9.83035 13.09 9.98991C12.9305 10.1495 12.928 10.4057 13.0846 10.5623C13.2411 10.7188 13.4974 10.7164 13.6569 10.5568Z" fill="#6087B3"/>
</svg>
