<svg width="24" height="24" viewBox="0 0 24 24" fill="none" xmlns="http://www.w3.org/2000/svg">
<path d="M18.2421 7.34532C18.1986 6.56293 17.5575 5.93268 16.7642 5.93268H7.09307C6.29982 5.93268 5.6587 6.56293 5.61523 7.34532C5.61523 7.35619 5.60437 7.36705 5.60437 7.37792V8.89923C5.60437 9.25782 5.89776 9.56208 6.26722 9.56208C6.53889 9.56208 6.77795 9.38822 6.87574 9.14915C6.93008 9.00789 7.04961 8.91009 7.20174 8.91009H9.82056C10.1574 8.91009 10.44 9.18175 10.44 9.52948V16.9078C10.44 17.1034 10.277 17.2664 10.0814 17.2664H9.6141C9.24464 17.2664 8.95125 17.5598 8.95125 17.9293C8.95125 18.2987 9.24464 18.5921 9.6141 18.5921H14.2215C14.5801 18.5921 14.8843 18.2987 14.8843 17.9293C14.8843 17.5598 14.591 17.2664 14.2215 17.2664H13.7542C13.5586 17.2664 13.3956 17.1034 13.3956 16.9078V9.52948C13.3956 9.19262 13.6673 8.91009 14.015 8.91009H16.6447C16.7968 8.91009 16.9164 9.00789 16.9707 9.14915C17.0685 9.38822 17.3076 9.56208 17.5792 9.56208C17.9378 9.56208 18.2421 9.26869 18.2421 8.89923V7.37792C18.253 7.36705 18.2421 7.35619 18.2421 7.34532Z" fill="#FF9433"/>
</svg>
