<svg width="24" height="24" viewBox="0 0 24 24" fill="none" xmlns="http://www.w3.org/2000/svg">
<path d="M19.6702 12.7852C19.6479 6.23732 16.147 4.60036 11.8351 4.60036C11.0696 4.59467 10.3052 4.65692 9.55078 4.78637C9.64751 5.63834 10.5925 10.9808 19.6702 12.7852Z" fill="#3984F7"/>
<path d="M19.6702 12.7848C14.9119 11.8361 12.3894 9.91636 11.0501 8.18266C8.85881 10.7869 4.81848 11.3822 4.0558 11.4715C4.0186 11.9068 4 12.3644 4 12.8517C4 19.4554 7.50831 21.0998 11.8351 21.0998C16.1619 21.0998 19.6702 19.4517 19.6702 12.8517V12.7848Z" fill="#FFC720"/>
<path d="M11.05 8.18282C10.2622 7.2036 9.74866 6.03268 9.56189 4.78984C6.6414 5.32185 4.44265 7.09647 4.06689 11.4865C4.81841 11.3823 8.85874 10.7982 11.05 8.18282Z" fill="#FF70C8"/>
<path d="M10.1024 15.3191C10.5034 14.9181 10.5081 14.2726 10.1129 13.8775C9.71776 13.4823 9.07233 13.487 8.67133 13.888C8.27033 14.289 8.26561 14.9344 8.6608 15.3296C9.05599 15.7248 9.70143 15.7201 10.1024 15.3191Z" fill="#50595E"/>
<path d="M15.0004 15.3209C15.4014 14.9199 15.4061 14.2744 15.0109 13.8793C14.6157 13.4841 13.9703 13.4888 13.5693 13.8898C13.1683 14.2908 13.1636 14.9362 13.5588 15.3314C13.954 15.7266 14.5994 15.7219 15.0004 15.3209Z" fill="#50595E"/>
</svg>
